/* XPM */
static char *result[] = {
/* columns rows colors chars-per-pixel */
"32 32 5 1 ",
"  c black",
". c #C99928",
"X c #FFEB4B",
"o c #FFFEDE",
"O c None",
/* pixels */
"OOOOOOOOOOOOOOOOOOOOOOOOOOOOOOOO",
"OOOOOOOOOOOOOOOOOOOOOOOOOOOOOOOO",
"OOOOOOOOOOOOOOOOOOOOOOOOOOOOOOOO",
"OOOOOOOOOOO           OOOOOOOOOO",
"OOOOOOOOOO Xoooooo  .. OOOOOOOOO",
"OOOOOOOOO Xooooooooo .. OOOOOOOO",
"OOOOOOOO Xooooooooooo XX OOOOOOO",
"OOOOOOO XXXX     Xoooo XX OOOOOO",
"OOOOOOO XXX  XXXX Xoooo X OOOOOO",
"OOOOOO XXX XXXoooX XXoo XX OOOOO",
"OOOOOO XX XoooooooX Xooo X OOOOO",
"OOOOO XX XXooooooooX Xoo XX OOOO",
"OOOOO XX Xoooooooooo XXoo X OOOO",
"OOOOO X  XooXXooooooX Xoo o OOOO",
"OOOOO X XXoXXXXoooooX XXo o OOOO",
"OOOOO X XXXXXXXXooooX XXo o OOOO",
"OOOOO X XXXXXXXXXoooX XXo o OOOO",
"OOOOO X XXXXXXXXXoooX XXX o OOOO",
"OOOOO X XXXXXXXXXXoXX XXX o OOOO",
"OOOOO X XXXXXXXXXXXXX XXX o OOOO",
"OOOOO X  .XXXXXXXXXXX XXX o OOOO",
"OOOOO XX ...XXXXX..XX XXX X OOOO",
"OOOOOO XX .........X XXXX X OOOO",
"OOOOOO XX ........X XXXX XX OOOO",
"OOOOOOO XX .......X XXXX X OOOOO",
"OOOOOOO XXX  ....X XXXX XX OOOOO",
"OOOOOOOO .XX      XXXX .. OOOOOO",
"OOOOOOOOO .XXXXXXXX.. .. OOOOOOO",
"OOOOOOOOOO .........  . OOOOOOOO",
"OOOOOOOOOOO  ......  . OOOOOOOOO",
"OOOOOOOOOOOO          OOOOOOOOOO",
"OOOOOOOOOOOOOOOOOOOOOOOOOOOOOOOO"
};
