/* XPM */
static char *result[] = {
/* columns rows colors chars-per-pixel */
"32 32 52 1 ",
"  c black",
". c #010100",
"X c #010101",
"o c #020202",
"O c #070706",
"+ c #080807",
"@ c #0A0A09",
"# c #0C0C0B",
"$ c #0D0D0B",
"% c #10100E",
"& c #272722",
"* c #2D2D27",
"= c #C99928",
"- c #CA9A28",
"; c #CC9D2A",
": c #D1A52D",
"> c #FFEB4B",
", c #FFEB4C",
"< c #FFEC4C",
"1 c #FFEC4D",
"2 c #FFEC4E",
"3 c #FFEC4F",
"4 c #FFEC50",
"5 c #FFEC53",
"6 c #FFEE5C",
"7 c #FFEF64",
"8 c #FFF178",
"9 c #FFF27B",
"0 c #FFF27D",
"q c #FFF490",
"w c #FFF9B7",
"e c #FFFBC4",
"r c #FFFBC6",
"t c #FFFCCA",
"y c #FFFCCB",
"u c #FFFCCD",
"i c #FFFCCE",
"p c #FFFDD0",
"a c #FFFDD1",
"s c #FFFDD3",
"d c #FFFDD5",
"f c #FFFDD6",
"g c #FFFDD7",
"h c #FFFED7",
"j c #FFFED8",
"k c #FFFED9",
"l c #FFFEDA",
"z c #FFFEDB",
"x c #FFFEDC",
"c c #FFFEDD",
"v c #FFFEDE",
"b c None",
/* pixels */
"bbbbbbbbbbbbbbbbbbbbbbbbbbbbbbbb",
"bbbbbbbbbbbbbbbbbbbbbbbbbbbbbbbb",
"bbbbbbbbbbbbbbbbbbbbbbbbbbbbbbbb",
"bbbbbbbbbbbb      bbbbbbbbbbbbbb",
"bbbbbbbbbbb == vvf bbbbbbbbbbbbb",
"bbbbbbbbbb ==*vvvvy bbbbbbbbbbbb",
"bbbbbbbbbb 7 cvvvvvvXbbbbbbbbbbb",
"bbbbbbbbb <>&vvv>>>ve bbbbbbbbbb",
"bbbbbbbbb 7 wvv>   >> bbbbbbbbbb",
"bbbbbbbb >> vv> 8jx >> bbbbbbbbb",
"bbbbbbbb >> x4>Oivvz > bbbbbbbbb",
"bbbbbbbb 2> v> rvvvh#> bbbbbbbbb",
"bbbbbbbb 6 ><>Oavvvcq  bbbbbbbbb",
"bbbbbbb vv >>>%lvv>>>  bbbbbbbbb",
"bbbbbbb vvX>, uvj>>>>  bbbbbbbbb",
"bbbbbbb vv+5> vv9>>>>  bbbbbbbbb",
"bbbbbbb vv$3> xx4>>>>  bbbbbbbbb",
"bbbbbbb vv$2>+pg1>>>>  bbbbbbbbb",
"bbbbbbb vv@1> da1>>>>  bbbbbbbbb",
"bbbbbbb cvo>> vs>>>>>  bbbbbbbbb",
"bbbbbbb av >> vk>>>>>  bbbbbbbbb",
"bbbbbbbXtvo0> >>>>>==  bbbbbbbbb",
"bbbbbbb  > >> >>==-; > bbbbbbbbb",
"bbbbbbbb >> >> ===== > bbbbbbbbb",
"bbbbbbbb >> >> ====.>> bbbbbbbbb",
"bbbbbbbb >> >>> ==: >  bbbbbbbbb",
"bbbbbbbb  = >>> == >> bbbbbbbbbb",
"bbbbbbbbb == ==>  >= bbbbbbbbbbb",
"bbbbbbbbbb == ==>>== bbbbbbbbbbb",
"bbbbbbbbbbb == ==== bbbbbbbbbbbb",
"bbbbbbbbbbb        bbbbbbbbbbbbb",
"bbbbbbbbbbbbbbbbbbbbbbbbbbbbbbbb"
};
