/* XPM */
static char *result[] = {
/* columns rows colors chars-per-pixel */
"30 30 5 1 ",
"  c black",
". c #C99928",
"X c #FFEB4B",
"o c #FFFEDE",
"O c None",
/* pixels */
"OOOOOOOOOOOOOOOOOOOOOOOOOOOOOO",
"OOOOOOOOO           OOOOOOOOOO",
"OOOOOOOO ..  ooooooX OOOOOOOOO",
"OOOOOOO .. oooooooooX OOOOOOOO",
"OOOOOO XX oooooooooooX OOOOOOO",
"OOOOO XX ooooX     XXXX OOOOOO",
"OOOOO X ooooX XXXX  XXX OOOOOO",
"OOOO XX ooXX XoooXXX XXX OOOOO",
"OOOO X oooX XoooooooX XX OOOOO",
"OOO XX ooX XooooooooXX XX OOOO",
"OOO X ooXX ooooooooooX XX OOOO",
"OOO o ooX XooooooXXooX  X OOOO",
"OOO o oXX XoooooXXXXoXX X OOOO",
"OOO o oXX XooooXXXXXXXX X OOOO",
"OOO o oXX XoooXXXXXXXXX X OOOO",
"OOO o XXX XoooXXXXXXXXX X OOOO",
"OOO o XXX XXoXXXXXXXXXX X OOOO",
"OOO o XXX XXXXXXXXXXXXX X OOOO",
"OOO o XXX XXXXXXXXXXX.  X OOOO",
"OOO X XXX XX..XXXXX... XX OOOO",
"OOO X XXXX X......... XX OOOOO",
"OOO XX XXXX X........ XX OOOOO",
"OOOO X XXXX X....... XX OOOOOO",
"OOOO XX XXXX X....  XXX OOOOOO",
"OOOOO .. XXXX      XX. OOOOOOO",
"OOOOOO .. ..XXXXXXXX. OOOOOOOO",
"OOOOOOO .  ......... OOOOOOOOO",
"OOOOOOOO .  ......  OOOOOOOOOO",
"OOOOOOOOO          OOOOOOOOOOO",
"OOOOOOOOOOOOOOOOOOOOOOOOOOOOOO"
};
