/* XPM */
static char *result[] = {
/* columns rows colors chars-per-pixel */
"30 30 5 1 ",
"  c black",
". c #C99928",
"X c #FFEB4B",
"o c #FFFEDE",
"O c None",
/* pixels */
"OOOOOOOOOOOOOOOOOOOOOOOOOOOOOO",
"OOOOOOOOOO           OOOOOOOOO",
"OOOOOOOOO Xoooooo  .. OOOOOOOO",
"OOOOOOOO Xooooooooo .. OOOOOOO",
"OOOOOOO Xooooooooooo XX OOOOOO",
"OOOOOO XXXX     Xoooo XX OOOOO",
"OOOOOO XXX  XXXX Xoooo X OOOOO",
"OOOOO XXX XXXoooX XXoo XX OOOO",
"OOOOO XX XoooooooX Xooo X OOOO",
"OOOO XX XXooooooooX Xoo XX OOO",
"OOOO XX Xoooooooooo XXoo X OOO",
"OOOO X  XooXXooooooX Xoo o OOO",
"OOOO X XXoXXXXoooooX XXo o OOO",
"OOOO X XXXXXXXXooooX XXo o OOO",
"OOOO X XXXXXXXXXoooX XXo o OOO",
"OOOO X XXXXXXXXXoooX XXX o OOO",
"OOOO X XXXXXXXXXXoXX XXX o OOO",
"OOOO X XXXXXXXXXXXXX XXX o OOO",
"OOOO X  .XXXXXXXXXXX XXX o OOO",
"OOOO XX ...XXXXX..XX XXX X OOO",
"OOOOO XX .........X XXXX X OOO",
"OOOOO XX ........X XXXX XX OOO",
"OOOOOO XX .......X XXXX X OOOO",
"OOOOOO XXX  ....X XXXX XX OOOO",
"OOOOOOO .XX      XXXX .. OOOOO",
"OOOOOOOO .XXXXXXXX.. .. OOOOOO",
"OOOOOOOOO .........  . OOOOOOO",
"OOOOOOOOOO  ......  . OOOOOOOO",
"OOOOOOOOOOO          OOOOOOOOO",
"OOOOOOOOOOOOOOOOOOOOOOOOOOOOOO"
};
