/* XPM */
static char *result[] = {
/* columns rows colors chars-per-pixel */
"32 32 5 1 ",
"  c black",
". c #C99928",
"X c #FFEB4B",
"o c #FFFEDE",
"O c None",
/* pixels */
"OOOOOOOOOOOOOOOOOOOOOOOOOOOOOOOO",
"OOOOOOOOOOOOOOOOOOOOOOOOOOOOOOOO",
"OOOOOOOOOOOOOOOOOOOOOOOOOOOOOOOO",
"OOOOOOOOOOO          OOOOOOOOOOO",
"OOOOOOOOO  oooooooooo OOOOOOOOOO",
"OOOOOOOO ooooooooooooo OOOOOOOOO",
"OOOOOOO ooooXXXXXXXoooo OOOOOOOO",
"OOOOOO oooXX       XXooo OOOOOOO",
"OOOOO oooXX XXXXXXX XXooo OOOOOO",
"OOOO oooXX XXoooooXX XXooo OOOOO",
"OOOO ooXX XXoooooooXX XXoo OOOOO",
"OOO ooXX XXoooooooooXX XXoo OOOO",
"OOO ooXX XoooooooooooX XXoo OOOO",
"OOO oXX XXooooXXXooooXX XXo OOOO",
"OOO XXX XooXXXXXXXXXooX XXX OOOO",
"OOO XXX XXXXXXXXXXXXXXX XXX OOOO",
"OOO XXX XXXXXXXXXXXXXXX XXX OOOO",
"OOO XXX XXXXXXXXXXXXXXX XXX OOOO",
"OOO XXX XXXXXXXXXXXXXXX XXX OOOO",
"OOO XXX XXXXXXXXXXXXXXX XXX OOOO",
"OOO XXX X....XXXXX....X XXX OOOO",
"OOO XXXX X...........X XXXX OOOO",
"OOO XXXX X...........X XXXX OOOO",
"OOOO XXXX X.........X XXXX  OOOO",
"OOOO  ..XX X.......X XX..X OOOOO",
"OOOOO ...XX XXXXXXX XX... OOOOOO",
"OOOOOO ...XX       XX... OOOOOOO",
"OOOOOOO ...XXXXXXXXX... OOOOOOOO",
"OOOOOOOO  ............ OOOOOOOOO",
"OOOOOOOOOO .........  OOOOOOOOOO",
"OOOOOOOOOO          OOOOOOOOOOOO",
"OOOOOOOOOOOOOOOOOOOOOOOOOOOOOOOO"
};
