/* XPM */
static char *result[] = {
/* columns rows colors chars-per-pixel */
"32 32 5 1 ",
"  c black",
". c #C99928",
"X c #FFEB4B",
"o c #FFFEDE",
"O c None",
/* pixels */
"OOOOOOOOOOOOOOOOOOOOOOOOOOOOOOOO",
"OOOOOOOOOOOOOOOOOOOOOOOOOOOOOOOO",
"OOOOOOOOOOOOOOOOOOOOOOOOOOOOOOOO",
"OOOOOOOOOO           OOOOOOOOOOO",
"OOOOOOOOO ..  ooooooX OOOOOOOOOO",
"OOOOOOOO .. oooooooooX OOOOOOOOO",
"OOOOOOO XX oooooooooooX OOOOOOOO",
"OOOOOO XX ooooX     XXXX OOOOOOO",
"OOOOOO X ooooX XXXX  XXX OOOOOOO",
"OOOOO XX ooXX XoooXXX XXX OOOOOO",
"OOOOO X oooX XoooooooX XX OOOOOO",
"OOOO XX ooX XooooooooXX XX OOOOO",
"OOOO X ooXX ooooooooooX XX OOOOO",
"OOOO o ooX XooooooXXooX  X OOOOO",
"OOOO o oXX XoooooXXXXoXX X OOOOO",
"OOOO o oXX XooooXXXXXXXX X OOOOO",
"OOOO o oXX XoooXXXXXXXXX X OOOOO",
"OOOO o XXX XoooXXXXXXXXX X OOOOO",
"OOOO o XXX XXoXXXXXXXXXX X OOOOO",
"OOOO o XXX XXXXXXXXXXXXX X OOOOO",
"OOOO o XXX XXXXXXXXXXX.  X OOOOO",
"OOOO X XXX XX..XXXXX... XX OOOOO",
"OOOO X XXXX X......... XX OOOOOO",
"OOOO XX XXXX X........ XX OOOOOO",
"OOOOO X XXXX X....... XX OOOOOOO",
"OOOOO XX XXXX X....  XXX OOOOOOO",
"OOOOOO .. XXXX      XX. OOOOOOOO",
"OOOOOOO .. ..XXXXXXXX. OOOOOOOOO",
"OOOOOOOO .  ......... OOOOOOOOOO",
"OOOOOOOOO .  ......  OOOOOOOOOOO",
"OOOOOOOOOO          OOOOOOOOOOOO",
"OOOOOOOOOOOOOOOOOOOOOOOOOOOOOOOO"
};
