/* XPM */
static char *result[] = {
/* columns rows colors chars-per-pixel */
"128 128 20 1 ",
"  c black",
". c #202020",
"X c #2C2C2C",
"o c gray22",
"O c #000040",
"+ c #00004C",
"@ c #000058",
"# c #000064",
"$ c #000070",
"% c #00007C",
"& c gray33",
"* c #000088",
"= c #000098",
"- c #0000A4",
"; c #0000B0",
": c #0000BC",
"> c #0000C8",
", c #0000D4",
"< c #0000E0",
"1 c #4040FC",
/* pixels */
"oo$$%%%%%%%%%%%%%%%%%%%%%%%%%%%%%%%%%%%%%%$$oooo********************************************************oooo$$%%%%%%%%%%%%%%$$XX",
"oo$$%%%%%%%%%%%%%%%%%%%%%%%%%%%%%%%%%%%%%%$$oooo********************************************************oooo$$%%%%%%%%%%%%%%$$XX",
"..------------------------------------------....::::::::::::::::::::::::::::::::::::::::::::::::::::::::....;;;;;;;;;;;;;;;;;;..",
"..------------------------------------------....::::::::::::::::::::::::::::::::::::::::::::::::::::::::....;;;;;;;;;;;;;;;;;;..",
"  ------**--%%----==%%====%%====%%--%%$$$$@@  ..::--::;;%%--::==$$$$==**----**$$**--::--**==--::::--==$$  ..;;::--==--;;;;==%%  ",
"  ------**--%%----==%%====%%====%%--%%$$$$@@  ..::--::;;%%--::==$$$$==**----**$$**--::--**==--::::--==$$  ..;;::--==--;;;;==%%  ",
"  --==%%**======%%%%--==--##====%%$$%%%%$$##  ..::::--======$$==@@$$@@@@%%----##$$$$##$$$$@@$$****$$##$$  ..;;;;----%%==----@@  ",
"  --==%%**======%%%%--==--##====%%$$%%%%$$##  ..::::--======$$==@@$$@@@@%%----##$$$$##$$$$@@$$****$$##$$  ..;;;;----%%==----@@  ",
"  --**--$$>>>>==%%%%%%==****%%##@@%%$$@@@@##  ..                                                          ..;;--;;::::;;--%%%%  ",
"  --**--$$>>>>==%%%%%%==****%%##@@%%$$@@@@##  ..                                                          ..;;--;;::::;;--%%%%  ",
"  --**%%-->>>>##%%%%%%--======**$$$$%%@@@@OO  ..--------------------------------------......................;;::--;;--%%%%##@@  ",
"  --**%%-->>>>##%%%%%%--======**$$$$%%@@@@OO  ..--------------------------------------......................;;::--;;--%%%%##@@  ",
"  --====;;;;------==------====$$$$##@@##$$##  ..--::::::;;--====::====;;====;;::::----  ..--------====##....;;====--%%****####  ",
"  --====;;;;------==------====$$$$##@@##$$##  ..--::::::;;--====::====;;====;;::::----  ..--------====##....;;====--%%****####  ",
"  ----==--;;;;--==%%##----==****%%####@@OOOO  ..--;;::<<>>;;--::--======;;;;------==--  ..--====**==%%##  ..;;====--$$******##  ",
"  ----==--;;;;--==%%##----==****%%####@@OOOO  ..--;;::<<>>;;--::--======;;;;------==--  ..--====**==%%##  ..;;====--$$******##  ",
"  --==%%==----**==%%==$$$$******$$%%%%##@@OO  ..--;;>>::>>==;;----::====--%%--%%==--%%  ..--======%%%%##  ..;;::--==----****OO  ",
"  --==%%==----**==%%==$$$$******$$%%%%##@@OO  ..--;;>>::>>==;;----::====--%%--%%==--%%  ..--======%%%%##  ..;;::--==----****OO  ",
"  --******--%%%%%%----$$@@####$$##%%%%%%@@OO  ..--;;;;;;======;;--------==**##%%%%%%##  ..----==%%%%@@@@  ..::%%%%==----==@@OO  ",
"  --******--%%%%%%----$$@@####$$##%%%%%%@@OO  ..--;;;;;;======;;--------==**##%%%%%%##  ..----==%%%%@@@@  ..::%%%%==----==@@OO  ",
"  ==%%**--****$$==----$$$$##@@######%%%%@@OO  ..--::;;;;;;====;;::::----####**%%%%##@@  ..----==%%--%%@@  ..::%%::--%%====@@OO  ",
"  ==%%**--****$$==----$$$$##@@######%%%%@@OO  ..--::;;;;;;====;;::::----####**%%%%##@@  ..----==%%--%%@@  ..::%%::--%%====@@OO  ",
"  ==**==%%%%--**##%%@@%%##@@##%%OO@@OOOO##OO  ..--::----;;;;;;;;::;;;;--####$$--####OO  ..--%%**==%%@@@@  ..::::%%%%####%%%%OO  ",
"  ==**==%%%%--**##%%@@%%##@@##%%OO@@OOOO##OO  ..--::----;;;;;;;;::;;;;--####$$--####OO  ..--%%**==%%@@@@  ..::::%%%%####%%%%OO  ",
"  ==%%==%%##****%%##%%##%%##OO$$$$OOOOOO##OO  ..--;;----==::====--;;;;--====%%%%@@@@##  ..--******$$$$##  ..::%%$$##%%##%%%%OO  ",
"  ==%%==%%##****%%##%%##%%##OO$$$$OOOOOO##OO  ..--;;----==::====--;;;;--====%%%%@@@@##  ..--******$$$$##  ..::%%$$##%%##%%%%OO  ",
"  ====%%%%%%$$##@@@@##%%##$$##OOOO$$OO##@@OO  ..--;;<<>>****====**%%%%%%**==**%%####OO  ..----****$$$$##  ..::%%%%$$@@@@@@@@OO  ",
"  ====%%%%%%$$##@@@@##%%##$$##OOOO$$OO##@@OO  ..--;;<<>>****====**%%%%%%**==**%%####OO  ..----****$$$$##  ..::%%%%$$@@@@@@@@OO  ",
"  ==%%==####$$##%%##OOOOOOOOOOOOOOOOOOOOOOOO  ..--::>>>>******----%%****%%**$$%%##@@OO  ..--%%==--@@@@@@  ..                    ",
"  ==%%==####$$##%%##OOOOOOOOOOOOOOOOOOOOOOOO  ..--::>>>>******----%%****%%**$$%%##@@OO  ..--%%==--@@@@@@  ..                    ",
"                                              ..--::----==****------****==####%%##@@OO  ..------==--@@##  ......................",
"                                              ..--::----==****------****==####%%##@@OO  ..------==--@@##  ......................",
"--::;;--;;----------;;--------  ;;;;;;----====  --;;==--**==--------%%====%%%%@@@@OOOO  ..==--==--==$$##  ..--------  ::::::::::",
"--::;;--;;----------;;--------  ;;;;;;----====  --;;==--**==--------%%====%%%%@@@@OOOO  ..==--==--==$$##  ..--------  ::::::::::",
"::;;--==--::;;--**----%%--==%%  ;;;;==::::%%::  --------::--==------**##$$%%OOOO##@@OO  ..====%%$$%%$$@@  ..--;;**%%  ::::--;;::",
"::;;--==--::;;--**----%%--==%%  ;;;;==::::%%::  --------::--==------**##$$%%OOOO##@@OO  ..====%%$$%%$$@@  ..--;;**%%  ::::--;;::",
"::;;====**----**%%====%%%%====  ;;::::;;==%%%%  --;;==--::--**%%****##%%%%$$OOOO##OOOO  ..====@@@@@@##OO  ..--;;;;%%  ::--;;;;;;",
"::;;====**----**%%====%%%%====  ;;::::;;==%%%%  --;;==--::--**%%****##%%%%$$OOOO##OOOO  ..====@@@@@@##OO  ..--;;;;%%  ::--;;;;;;",
";;--==;;;;====%%%%%%==%%%%%%%%  ;;::;;;;====##  --;;------**--%%%%##$$$$@@@@@@####@@OO  ..==%%@@##@@@@OO  ..--**%%@@  ::::::;;;;",
";;--==;;;;====%%%%%%==%%%%%%%%  ;;::;;;;====##  --;;------**--%%%%##$$$$@@@@@@####@@OO  ..==%%@@##@@@@OO  ..--**%%@@  ::::::;;;;",
"--**==;;::;;%%%%====%%==@@%%%%  ;;::==%%====##  ------========%%##@@####@@####@@OOOOOO  ..==%%##@@@@OOOO  ..--@@##@@  ::::;;;;;;",
"--**==;;::;;%%%%====%%==@@%%%%  ;;::==%%====##  ------========%%##@@####@@####@@OOOOOO  ..==%%##@@@@OOOO  ..--@@##@@  ::::;;;;;;",
"----**==;;,,%%==%%%%####$$%%%%  ;;==::%%%%%%##                                          ..                          ..::::----==",
"----**==;;,,%%==%%%%####$$%%%%  ;;==::%%%%%%##                                          ..                          ..::::----==",
";;**%%**==--==%%%%==##$$%%@@@@  ;;====##%%%%@@  ..................................................;;;;;;;;;;;;;;;;....::----====",
";;**%%**==--==%%%%==##$$%%@@@@  ;;====##%%%%@@  ..................................................;;;;;;;;;;;;;;;;....::----====",
";;--**==%%==%%====%%$$%%##%%@@  ;;::==**##@@##  ..;;;;;;;;;;;;;;;;;;;;;;;;;;;;;;;;;;;;;;;;==--....;;>>;;>>------==  ..::;;======",
";;--**==%%==%%====%%$$%%##%%@@  ;;::==**##@@##  ..;;;;;;;;;;;;;;;;;;;;;;;;;;;;;;;;;;;;;;;;==--....;;>>;;>>------==  ..::;;======",
";;;;==**;;========%%%%$$@@@@@@  --::%%****##@@  ..;;::;;--::::::;;::--;;--::;;%%--::::::%%--@@  ..;;>>;;>>>>--==**  ..::::======",
";;;;==**;;========%%%%$$@@@@@@  --::%%****##@@  ..;;::;;--::::::;;::--;;--::;;%%--::::::%%--@@  ..;;>>;;>>>>--==**  ..::::======",
";;--**%%**;;;;##%%==****$$@@##  --%%##$$$$@@##  ..;;::--;;>><<<<::,,<<--::----::::--------%%@@  ..;;>>>>>>>>--**%%  ..::;;::----",
";;--**%%**;;;;##%%==****$$@@##  --%%##$$$$@@##  ..;;::--;;>><<<<::,,<<--::----::::--------%%@@  ..;;>>>>>>>>--**%%  ..::;;::----",
"--==%%**--;;;;--==%%****$$@@##  ==%%@@@@@@@@##  ..;;;;--::,,,,<<::<<,,,,;;%%--%%%%--%%%%--@@@@  ..;;;;-->>--**--##  ..::::::----",
"--==%%**--;;;;--==%%****$$@@##  ==%%@@@@@@@@##  ..;;;;--::,,,,<<::<<,,,,;;%%--%%%%--%%%%--@@@@  ..;;;;-->>--**--##  ..::::::----",
";;==;;====--;;--##%%$$$$$$@@@@                  ..;;::::;;;;>>>>----,,,,----%%%%%%$$--%%%%@@@@  ..;;>>--------**##  ..::::::;;;;",
";;==;;====--;;--##%%$$$$$$@@@@                  ..;;::::;;;;>>>>----,,,,----%%%%%%$$--%%%%@@@@  ..;;>>--------**##  ..::::::;;;;",
"--****----==----##$$@@##@@OOOO  ..................;;;;::;;;;;;------::------%%****%%%%@@@@@@##  ..;;>>>>----**%%$$  ..::----::;;",
"--****----==----##$$@@##@@OOOO  ..................;;;;::;;;;;;------::------%%****%%%%@@@@@@##  ..;;>>>>----**%%$$  ..::----::;;",
"--==**------==%%$$##@@####@@@@  ..;;;;;;;;----....;;----::;;****--::;;%%----%%******$$$$$$@@@@  ..;;>>>>====----@@  ..::----;;;;",
"--==**------==%%$$##@@####@@@@  ..;;;;;;;;----....;;----::;;****--::;;%%----%%******$$$$$$@@@@  ..;;>>>>====----@@  ..::----;;;;",
"==**==**----%%####@@@@@@##OO##  ..;;;;**--==**  ..;;::;;::;;****------%%------$$****@@$$$$$$OO  ..;;;;>>======--@@  ..::::====%%",
"==**==**----%%####@@@@@@##OO##  ..;;;;**--==**  ..;;::;;::;;****------%%------$$****@@$$$$$$OO  ..;;;;>>======--@@  ..::::====%%",
"==****%%****%%####$$%%%%##OOOO  ..;;----==**==  ..;;::::--;;;;;;==--%%%%%%----$$@@##@@##$$$$OO  ..;;;;--**;;----##  ..::****====",
"==****%%****%%####$$%%%%##OOOO  ..;;----==**==  ..;;::::--;;;;;;==--%%%%%%----$$@@##@@##$$$$OO  ..;;;;--**;;----##  ..::****====",
"==**--==$$%%%%$$##$$%%%%##@@OO  ..;;--==**$$##  ..;;::--%%--;;;;----%%$$%%##$$$$$$@@OOOO@@OOOO  ..;;;;>>**;;;;==##  ..::****%%%%",
"==**--==$$%%%%$$##$$%%%%##@@OO  ..;;--==**$$##  ..;;::--%%--;;;;----%%$$%%##$$$$$$@@OOOO@@OOOO  ..;;;;>>**;;;;==##  ..::****%%%%",
"==--==****%%####@@++++$$##@@OO  ..;;;;**;;**@@  ..;;----::%%----==%%$$%%%%####$$$$##OOOO####OO  ..;;-->>--**====@@  ..::::%%%%%%",
"==--==****%%####@@++++$$##@@OO  ..;;;;**;;**@@  ..;;----::%%----==%%$$%%%%####$$$$##OOOO####OO  ..;;-->>--**====@@  ..::::%%%%%%",
"%%====**%%%%%%%%@@++++@@@@##OO  ..;;;;;;$$$$##  ..;;%%::%%----%%%%$$##%%%%%%####@@@@######++OO  ..;;>>----==@@$$##  ..::----====",
"%%====**%%%%%%%%@@++++@@@@##OO  ..;;;;;;$$$$##  ..;;%%::%%----%%%%$$##%%%%%%####@@@@######++OO  ..;;>>----==@@$$##  ..::----====",
"%%****%%$$%%%%%%@@@@##@@@@@@@@  ..;;;;;;--@@@@  ..;;--::%%----$$####@@%%%%%%##@@@@@@@@++++++OO  ..;;>>--==%%==$$@@  ..::----==**",
"%%****%%$$%%%%%%@@@@##@@@@@@@@  ..;;;;;;--@@@@  ..;;--::%%----$$####@@%%%%%%##@@@@@@@@++++++OO  ..;;>>--==%%==$$@@  ..::----==**",
"%%**##$$%%##%%%%@@##@@OO@@##@@  ..;;====@@**##  ..;;--%%----%%@@@@@@@@########@@OOOOOOOOOOOOOO  ..;;>>--%%====%%##  ..::==----%%",
"%%**##$$%%##%%%%@@##@@OO@@##@@  ..;;====@@**##  ..;;--%%----%%@@@@@@@@########@@OOOOOOOOOOOOOO  ..;;>>--%%====%%##  ..::==----%%",
"%%==%%##%%##$$@@##OOOO@@OOOOOO  ..;;====;;@@##  ..                                              ..--;;--%%##%%%%##  ..::==****%%",
"%%==%%##%%##$$@@##OOOO@@OOOOOO  ..;;====;;@@##  ..                                              ..--;;--%%##%%%%##  ..::==****%%",
"%%**==**$$%%$$@@@@@@OO##OO@@OO  ..;;;;**;;**@@  ..................................................--;;;;--%%@@##OO  ..::::****%%",
"%%**==**$$%%$$@@@@@@OO##OO@@OO  ..;;;;**;;**@@  ..................................................--;;;;--%%@@##OO  ..::::****%%",
"%%==**%%##$$%%$$OOOOOOOOOOOOOO  ..;;;;****@@##  ..--------------------------------------------....--;;--::--%%##OO  ..::====%%**",
"%%==**%%##$$%%$$OOOOOOOOOOOOOO  ..;;;;****@@##  ..--------------------------------------------....--;;--::--%%##OO  ..::====%%**",
"                                ..;;;;%%%%@@@@  ..--::::::::::::;;--------------==**%%::==--%%  ..-->>----::**@@OO  ..          ",
"                                ..;;;;%%%%@@@@  ..--::::::::::::;;--------------==**%%::==--%%  ..-->>----::**@@OO  ..          ",
"..........@@@@$$$$******%%$$##....--;;%%%%%%@@  ..;;::>>>>::----;;;;>>::====----==%%**%%**==%%  ..--------****@@OO  ..**==****  ",
"..........@@@@$$$$******%%$$##....--;;%%%%%%@@  ..;;::>>>>::----;;;;>>::====----==%%**%%**==%%  ..--------****@@OO  ..**==****  ",
"..==--;;::::::::::::::::::::::....----**%%%%##  ..;;::>>>>>>;;;;;;;;::::%%%%%%%%------====%%##  ..-->>--%%$$@@@@OO  ..====%%%%  ",
"..==--;;::::::::::::::::::::::....----**%%%%##  ..;;::>>>>>>;;;;;;;;::::%%%%%%%%------====%%##  ..-->>--%%$$@@@@OO  ..====%%%%  ",
"..--::::::::::;;--;;::------::  ..----==@@####  ..;;::::::::,,,,;;;;;;%%%%%%%%%%%%==%%%%$$==##  ..--;;**$$##@@$$OO  ..==%%$$$$  ",
"..--::::::::::;;--;;::------::  ..----==@@####  ..;;::::::::,,,,;;;;;;%%%%%%%%%%%%==%%%%$$==##  ..--;;**$$##@@$$OO  ..==%%$$$$  ",
"..--::;;;;,,,,;;::::::==--::::  ..--==**@@@@@@  ..;;::::;;::,,,,,,%%--==%%%%$$$$$$**%%%%%%%%##  ..----$$##$$@@@@OO  ..==$$%%@@  ",
"..--::;;;;,,,,;;::::::==--::::  ..--==**@@@@@@  ..;;::::;;::,,,,,,%%--==%%%%$$$$$$**%%%%%%%%##  ..----$$##$$@@@@OO  ..==$$%%@@  ",
"..::::::;;,,,,::====--::::==;;  ..              ..--;;::;;::::,,,,::----==%%$$$$####@@%%%%%%##  ..**%%%%@@@@@@##OO  ..**%%$$@@  ",
"..::::::;;,,,,::====--::::==;;  ..              ..--;;::;;::::,,,,::----==%%$$$$####@@%%%%%%##  ..**%%%%@@@@@@##OO  ..**%%$$@@  ",
"..::--;;--;;;;;;======::--****  ..................----;;>>====::--::--------%%%%####%%##@@++++  ..                  ..**$$@@##  ",
"..::--;;--;;;;;;======::--****  ..................----;;>>====::--::--------%%%%####%%##@@++++  ..                  ..**$$@@##  ",
"..::::;;==**;;;;--====--::::--  ..::::;;----==....---->>>>======;;------%%%%==**$$####@@@@OOOO  ..............................  ",
"..::::;;==**;;;;--====--::::--  ..::::;;----==....---->>>>======;;------%%%%==**$$####@@@@OOOO  ..............................  ",
"..::::==--::;;**--;;;;;;%%----  ..::%%::**==**  ..--::::::;;====::::::--%%%%%%%%######@@@@OOOO  ..;;;;;;;;::::::::::::::::::::  ",
"..::::==--::;;**--;;;;;;%%----  ..::%%::**==**  ..--::::::;;====::::::--%%%%%%%%######@@@@OOOO  ..;;;;;;;;::::::::::::::::::::  ",
"..::::::::--**::**;;%%%%--**--  ..::--;;;;==%%  ..--;;----;;;;;;::::::::--%%**$$@@######$$@@++  ..;;;;----;;;;;;;;--**::----%%  ",
"..::::::::--**::**;;%%%%--**--  ..::--;;;;==%%  ..--;;----;;;;;;::::::::--%%**$$@@######$$@@++  ..;;;;----;;;;;;;;--**::----%%  ",
"..::--::==----::;;==%%++%%----  ..::::%%--%%$$  ..--::------==--::::::::------@@@@@@@@##$$$$##  ..;;--;;,,,,;;;;;;==------==%%  ",
"..::--::==----::;;==%%++%%----  ..::::%%--%%$$  ..--::------==--::::::::------@@@@@@@@##$$$$##  ..;;--;;,,,,;;;;;;==------==%%  ",
"..::;;====::<<::--**--%%%%----  ..::;;----%%--  ..--::::----::****::::::------$$@@@@##@@++++++  ..;;::::,,>>>>;;;;****--==%%##  ",
"..::;;====::<<::--**--%%%%----  ..::;;----%%--  ..--::::----::****::::::------$$@@@@##@@++++++  ..;;::::,,>>>>;;;;****--==%%##  ",
"..::--::--<<11<<====--==**%%**  ..::;;--%%--$$  ..----::====%%%%%%**------%%%%%%####@@@@@@OOOO  ..;;==::==>>>>;;;;----%%%%%%@@  ",
"..::--::--<<11<<====--==**%%**  ..::;;--%%--$$  ..----::====%%%%%%**------%%%%%%####@@@@@@OOOO  ..;;==::==>>>>;;;;----%%%%%%@@  ",
"..::;;::;;::<<::--%%----++++##  ..::--;;;;%%##  ..----::--****%%%%%%**%%**@@@@====$$$$@@++OOOO  ..;;::;;======----%%%%%%%%@@##  ",
"..::;;::;;::<<::--%%----++++##  ..::--;;;;%%##  ..----::--****%%%%%%**%%**@@@@====$$$$@@++OOOO  ..;;::;;======----%%%%%%%%@@##  ",
"..::--::;;;;;;******%%$$++++##  ..::::;;==**##  ..--==::::==::%%%%**%%%%**%%@@====**$$$$##@@##  ..;;;;--======--%%$$##%%@@@@##  ",
"..::--::;;;;;;******%%$$++++##  ..::::;;==**##  ..--==::::==::%%%%**%%%%**%%@@====**$$$$##@@##  ..;;;;--======--%%$$##%%@@@@##  ",
"..--::;;;;--%%%%==--====%%####  ..::;;--****%%  ..--::==--::--**%%$$$$****@@@@%%====%%$$@@@@OO  ..;;;;==--====--%%$$##$$%%@@@@  ",
"..--::;;;;--%%%%==--====%%####  ..::;;--****%%  ..--::==--::--**%%$$$$****@@@@%%====%%$$@@@@OO  ..;;;;==--====--%%$$##$$%%@@@@  ",
"..::--::;;****;;%%----==$$%%@@  ..::--::%%%%%%  ..--::------==**----$$$$@@$$@@@@%%%%%%##@@@@OO  ..;;;;::;;**;;;;==%%##====@@OO  ",
"..::--::;;****;;%%----==$$%%@@  ..::--::%%%%%%  ..--::------==**----$$$$@@$$@@@@%%%%%%##@@@@OO  ..;;;;::;;**;;;;==%%##====@@OO  ",
"..::--::--==**%%##**----==$$##  ..::::--######  ..------====%%**------$$##$$$$@@++++++##OOOOOO  ..::::;;**--;;;;;;==%%====%%OO  ",
"..::--::--==**%%##**----==$$##  ..::::--######  ..------====%%**------$$##$$$$@@++++++##OOOOOO  ..::::;;**--;;;;;;==%%====%%OO  ",
"..;;--******--##++##**====$$$$  ..::;;--%%$$@@  ..--;;--====::--%%----@@@@$$$$##@@OOOO@@OOOOOO  ..::;;--**----;;;;==%%%%%%%%OO  ",
"..;;--******--##++##**====$$$$  ..::;;--%%$$@@  ..--;;--====::--%%----@@@@$$$$##@@OOOO@@OOOOOO  ..::;;--**----;;;;==%%%%%%%%OO  ",
"..;;--$$##**##--%%%%==@@##@@@@  ..;;--######@@  ..--;;::%%::::--@@######@@@@++++++OOOO++@@OOOO  ..::;;--::----%%**$$$$%%%%@@OO  ",
"..;;--$$##**##--%%%%==@@##@@@@  ..;;--######@@  ..--;;::%%::::--@@######@@@@++++++OOOO++@@OOOO  ..::;;--::----%%**$$$$%%%%@@OO  ",
"..----****##**@@##@@##$$##$$##  ..;;--**$$####  ..----;;::--%%==@@######@@@@OOOO$$$$##OO++OO@@  ..::::::==--%%%%$$%%%%$$##OO##  ",
"..----****##**@@##@@##$$##$$##  ..;;--**$$####  ..----;;::--%%==@@######@@@@OOOO$$$$##OO++OO@@  ..::::::==--%%%%$$%%%%$$##OO##  ",
"..--==%%%%%%%%%%$$$$$$$$%%%%%%....--**%%%%%%%%....----==--==%%%%%%%%%%%%$$##@@@@%%%%%%%%@@@@$$....::----%%==--%%%%%%%%%%$$$$%%  ",
"..--==%%%%%%%%%%$$$$$$$$%%%%%%....--**%%%%%%%%....----==--==%%%%%%%%%%%%$$##@@@@%%%%%%%%@@@@$$....::----%%==--%%%%%%%%%%$$$$%%  ",
"oo******%%%%%%%%%%%%%%%%%%%%%%oooo****%%%%%%%%oooo-->>**********%%%%%%%%%%%%%%%%%%%%%%%%%%%%%%oooo::****%%%%%%%%%%%%%%%%%%%%%%..",
"oo******%%%%%%%%%%%%%%%%%%%%%%oooo****%%%%%%%%oooo-->>**********%%%%%%%%%%%%%%%%%%%%%%%%%%%%%%oooo::****%%%%%%%%%%%%%%%%%%%%%%..",
"&&&&&&&&&&&&&&&&&&&&&&&&&&&&&&&&&&&&&&&&&&&&&&&&&&&&&&&&&&&&&&&&&&&&&&&&&&&&&&&&&&&&&&&&&&&&&&&&&&&&&&&&&&&&&&&&&&&&&&&&&&&&&&oo",
"&&&&&&&&&&&&&&&&&&&&&&&&&&&&&&&&&&&&&&&&&&&&&&&&&&&&&&&&&&&&&&&&&&&&&&&&&&&&&&&&&&&&&&&&&&&&&&&&&&&&&&&&&&&&&&&&&&&&&&&&&&&&&&oo"
};
