/* XPM */
static char *result[] = {
/* columns rows colors chars-per-pixel */
"128 128 20 1 ",
"  c #202020",
". c #2C2C2C",
"X c #343434",
"o c gray22",
"O c #400040",
"+ c #480048",
"@ c #580058",
"# c #600064",
"$ c #6C0070",
"% c gray25",
"& c #484848",
"* c gray33",
"= c gray36",
"- c #646464",
"; c #840084",
": c #9C009C",
"> c #A800A8",
", c #B400B4",
"< c #C800CC",
"1 c #E000E4",
/* pixels */
"oooooooooooooooooooooooooooooooooooooooooooooooooooooooooooooooooooooooooooooooooooooooooooooooooooooooooooooooooooooooooooooooo",
"oooooooooooooooooooooooooooooooooooooooooooooooooooooooooooooooooooooooooooooooooooooooooooooooooooooooooooooooooooooooooooooooo",
"**oo**&&&&&&**&&&&&&&&**&&&&&&&&&&&&**********&&&&&&&&&&&&**********&&&&&&oooo&&&&**&&&&&&&&**oo**&&&&&&**&&&&&&&&**&&&&&&&&&&&&",
"**oo**&&&&&&**&&&&&&&&**&&&&&&&&&&&&**********&&&&&&&&&&&&**********&&&&&&oooo&&&&**&&&&&&&&**oo**&&&&&&**&&&&&&&&**&&&&&&&&&&&&",
"<<<<<<<<<<<<<<<<<<>>&&**11<<<<<<<<<<<<<<<<<<<<<<<<<<>>&&oo11111111111111<<<<<<<<<<<<<<,,,,>>oo1111<<<<<<<<<<<<>>&&**11<<<<<<<<<<",
"<<<<<<<<<<<<<<<<<<>>&&**11<<<<<<<<<<<<<<<<<<<<<<<<<<>>&&oo11111111111111<<<<<<<<<<<<<<,,,,>>oo1111<<<<<<<<<<<<>>&&**11<<<<<<<<<<",
";;>>>>>>;;>>$$>>$$##..**<<;;;;>>$$>>$$::>>$$::$$>>::@@..&&<<>>;;##>>$$;;;;;;>>;;>>;;>>@@$$##&&<<>>>>;;>>$$>>$$##..**<<;;;;>>$$>>",
";;>>>>>>;;>>$$>>$$##..**<<;;;;>>$$>>$$::>>$$::$$>>::@@..&&<<>>;;##>>$$;;;;;;>>;;>>;;>>@@$$##&&<<>>>>;;>>$$>>$$##..**<<;;;;>>$$>>",
";;>>;;>>$$::>>$$@@OO..**<<,,>>;;$$>>>>$$>>;;;;$$::;;@@..&&<<$$##;;>>>>$$;;>>;;##>>;;>>;;$$++&&<<;;>>$$::>>$$@@OO..**<<,,>>;;$$>>",
";;>>;;>>$$::>>$$@@OO..**<<,,>>;;$$>>>>$$>>;;;;$$::;;@@..&&<<$$##;;>>>>$$;;>>;;##>>;;>>;;$$++&&<<;;>>$$::>>$$@@OO..**<<,,>>;;$$>>",
";;>>;;>>$$>>$$::@@OO..&&,,;;>>$$$$>>>>$$::$$;;$$::;;@@..oo,,::##;;>>;;$$;;>>;;##>>;;>>;;$$OO&&,,;;>>$$>>$$::@@OO..&&,,;;>>$$$$>>",
";;>>;;>>$$>>$$::@@OO..&&,,;;>>$$$$>>>>$$::$$;;$$::;;@@..oo,,::##;;>>;;$$;;>>;;##>>;;>>;;$$OO&&,,;;>>$$>>$$::@@OO..&&,,;;>>$$$$>>",
";;;;>>;;@@$$@@$$$$OO..**::$$$$++$$$$$$++$$$$;;++;;$$OO..oo,,$$@@$$$$;;++@@;;++++;;++$$;;;;OO&&,,>>;;@@$$@@$$$$OO..**::$$$$++$$$$",
";;;;>>;;@@$$@@$$$$OO..**::$$$$++$$$$$$++$$$$;;++;;$$OO..oo,,$$@@$$$$;;++@@;;++++;;++$$;;;;OO&&,,>>;;@@$$@@$$$$OO..**::$$$$++$$$$",
"................    ..**&&......        ..      ........&&oo................      ..........&&&&............    ..**&&......    ",
"................    ..**&&......        ..      ........&&oo................      ..........&&&&............    ..**&&......    ",
"**oooooo&&&&&&oooooooooo&&&&&&&&&&oooo**&&&&oo&&&&&&&&&&**&&******==--==**&&&&oo%%oo**&&&&****oooooo&&&&&&oooooooooo&&&&&&&&&&oo",
"**oooooo&&&&&&oooooooooo&&&&&&&&&&oooo**&&&&oo&&&&&&&&&&**&&******==--==**&&&&oo%%oo**&&&&****oooooo&&&&&&oooooooooo&&&&&&&&&&oo",
"<<,,,,,,,,,,,,,,,,,,,,OOoo**11<<<<<<<<<<<<,,,,,,,,,,,,,,,,,,,,,,,,,,,,,,,,,,OO&&oo11<<<<<<<<<<<<,,,,,,,,,,,,,,,,,,,,oo**11<<<<<<",
"<<,,,,,,,,,,,,,,,,,,,,OOoo**11<<<<<<<<<<<<,,,,,,,,,,,,,,,,,,,,,,,,,,,,,,,,,,OO&&oo11<<<<<<<<<<<<,,,,,,,,,,,,,,,,,,,,oo**11<<<<<<",
";;>>;;;;;;;;>>;;;;>>>>OO..&&<<,,>>;;>>;;>>>>$$;;,,;;;;>>##>>;;>>;;>>;;>>>>$$OO&&**<<;;>>;;>>;;>>;;;;;;;;>>;;;;>>>>OO..&&<<,,>>;;",
";;>>;;;;;;;;>>;;;;>>>>OO..&&<<,,>>;;>>;;>>>>$$;;,,;;;;>>##>>;;>>;;>>;;>>>>$$OO&&**<<;;>>;;>>;;>>;;;;;;;;>>;;;;>>>>OO..&&<<,,>>;;",
">>;;;;;;;;;;;;>>##>>##OO..&&<<$$>>;;,,;;>>$$>>;;,,;;;;>>##,,@@##>>$$$$>>>>$$OOoo&&<<;;>>>>::>>;;;;;;;;;;;;>>##>>##OO..&&<<$$>>;;",
">>;;;;;;;;;;;;>>##>>##OO..&&<<$$>>;;,,;;>>$$>>;;,,;;;;>>##,,@@##>>$$$$>>>>$$OOoo&&<<;;>>>>::>>;;;;;;;;;;;;>>##>>##OO..&&<<$$>>;;",
"$$>>##$$;;;;##>>;;>>>>OO..**<<,,>>;;;;##;;;;$$>>;;;;;;>>##,,;;##;;>>;;>>>>$$OOoo&&<<>>>>>>;;$$>>##$$;;;;##>>;;>>>>OO..**<<,,>>;;",
"$$>>##$$;;;;##>>;;>>>>OO..**<<,,>>;;;;##;;;;$$>>;;;;;;>>##,,;;##;;>>;;>>>>$$OOoo&&<<>>>>>>;;$$>>##$$;;;;##>>;;>>>>OO..**<<,,>>;;",
"$$,,##++;;$$$$::@@::$$OO..**,,>>;;@@::$$;;$$;;$$::$$##;;$$;;@@$$$$;;$$::;;$$OO%%**>>;;$$$$::$$,,##++;;$$$$::@@::$$OO..**,,>>;;@@",
"$$,,##++;;$$$$::@@::$$OO..**,,>>;;@@::$$;;$$;;$$::$$##;;$$;;@@$$$$;;$$::;;$$OO%%**>>;;$$$$::$$,,##++;;$$$$::@@::$$OO..**,,>>;;@@",
"............    ....  ..oooo&&oo..........XXooXX....        ....      ........&&**......................    ....  ..oooo&&oo....",
"............    ....  ..oooo&&oo..........XXooXX....        ....      ........&&**......................    ....  ..oooo&&oo....",
"****&&oo&&****oo&&oooooo&&**&&&&%%oooo%%oo&&&&**oo**%%oooo%%%%&&**%%oo%%&&&&****oo%%oo%%&&&&****&&oo&&****oo&&oooooo&&**&&&&%%oo",
"****&&oo&&****oo&&oooooo&&**&&&&%%oooo%%oo&&&&**oo**%%oooo%%%%&&**%%oo%%&&&&****oo%%oo%%&&&&****&&oo&&****oo&&oooooo&&**&&&&%%oo",
"**1111<<<<<<<<<<<<,,,,,,,,,,,,,,,,,,,,$$OO&&**11<<<<<<<<<<<<,,,,,,,,,,,,,,,,,,,,,,,,,,,,>>OO**1111<<<<<<<<<<<<,,,,,,,,,,,,,,,,,,",
"**1111<<<<<<<<<<<<,,,,,,,,,,,,,,,,,,,,$$OO&&**11<<<<<<<<<<<<,,,,,,,,,,,,,,,,,,,,,,,,,,,,>>OO**1111<<<<<<<<<<<<,,,,,,,,,,,,,,,,,,",
"oo11,,>>::>>$$;;>>;;::>>;;>>$$>>##;;$$,,OO&&==<<::>>>>##;;::;;::##,,##>>11;;>>>>##::;;>>$$OOoo11,,>>::>>$$;;>>;;::>>;;>>$$>>##;;",
"oo11,,>>::>>$$;;>>;;::>>;;>>$$>>##;;$$,,OO&&==<<::>>>>##;;::;;::##,,##>>11;;>>>>##::;;>>$$OOoo11,,>>::>>$$;;>>;;::>>;;>>$$>>##;;",
"&&,,,,>>++>>$$;;;;$$;;;;;;;;>>##;;##$$@@OO**==<<>>$$;;##;;$$>>;;##,,;;;;,,;;;;>>##;;;;>>$$OO&&,,<<>>++>>$$;;;;$$;;;;;;;;>>##;;##",
"&&,,,,>>++>>$$;;;;$$;;;;;;;;>>##;;##$$@@OO**==<<>>$$;;##;;$$>>;;##,,;;;;,,;;;;>>##;;;;>>$$OO&&,,<<>>++>>$$;;;;$$;;;;;;;;>>##;;##",
"**,,$$>>++;;>>##$$>>##;;##>>;;::##;;;;,,OO&&**<<$$>>::;;;;$$>>::@@,,++;;>>;;>>;;>>##++$$$$OO**,,<<>>++;;>>##@@>>##;;##>>;;####;;",
"**,,$$>>++;;>>##$$>>##;;##>>;;::##;;;;,,OO&&**<<$$>>::;;;;$$>>::@@,,++;;>>;;>>;;>>##++$$$$OO**,,<<>>++;;>>##@@>>##;;##>>;;####;;",
"**,,$$>>;;;;;;,,;;>>,,;;##>>;;::$$;;;;$$OO&&**<<;;>>;;,,>>;;>>;;,,$$;;;;>>@@>>;;>>##++$$$$OO**,,$$>>::;;>>##::;;##::;;>>;;##::;;",
"**,,$$>>;;;;;;,,;;>>,,;;##>>;;::$$;;;;$$OO&&**<<;;>>;;,,>>;;>>;;,,$$;;;;>>@@>>;;>>##++$$$$OO**,,$$>>::;;>>##::;;##::;;>>;;##::;;",
"&&>>::####################++++++++++++....oo**######################@@@@@@@@@@@@@@@@..@@@@..&&>>::####################++++++++++",
"&&>>::####################++++++++++++....oo**######################@@@@@@@@@@@@@@@@..@@@@..&&>>::####################++++++++++",
"&&&&oo........................oooo........&&&&............        ..oooo      ..............&&&&oo........................oooo..",
"&&&&oo........................oooo........&&&&............        ..oooo      ..............&&&&oo........................oooo..",
",,,,,,,,,,,,,,,,&&oo**<<<<<<<<<<,,,,,,,,,,,,,,,,,,,,,,,,,,&&**<<11<<<<<<<<<<<<,,,,,,,,,,,,,,,,,,,,,,,,,,,,,,&&oo**<<<<<<<<<<,,,,",
",,,,,,,,,,,,,,,,&&oo**<<<<<<<<<<,,,,,,,,,,,,,,,,,,,,,,,,,,&&**<<11<<<<<<<<<<<<,,,,,,,,,,,,,,,,,,,,,,,,,,,,,,&&oo**<<<<<<<<<<,,,,",
">>,,>>::<<,,<<>>oo&&oo<<##$$>>>>>>;;>>$$>>##>>##>>>>>>;;>>oo&&<<>>;;$$>>##>>;;;;>>>>;;>>>>$$>>$$>>::<<,,<<>>oo&&oo<<##$$>>>>>>;;",
">>,,>>::<<,,<<>>oo&&oo<<##$$>>>>>>;;>>$$>>##>>##>>>>>>;;>>oo&&<<>>;;$$>>##>>;;;;>>>>;;>>>>$$>>$$>>::<<,,<<>>oo&&oo<<##$$>>>>>>;;",
">>;;;;::>>;;;;$$..&&**<<>>;;>>;;::$$;;;;$$;;>>##>>$$>>##>>oo**<<>>@@$$>>##>>;;;;;;::$$::::;;>>;;;;::>>;;;;$$..&&**<<>>;;>>;;::$$",
">>;;;;::>>;;;;$$..&&**<<>>;;>>;;::$$;;;;$$;;>>##>>$$>>##>>oo**<<>>@@$$>>##>>;;;;;;::$$::::;;>>;;;;::>>;;;;$$..&&**<<>>;;>>;;::$$",
">>;;;;::>>::;;$$oo&&**<<##;;>>;;::;;;;$$;;##>>##;;::;;>>;;oo**<<;;>>$$>>>>>>$$>>;;;;;;::;;$$>>;;$$::>>::;;$$oo&&**<<##;;>>;;::;;",
">>;;;;::>>::;;$$oo&&**<<##;;>>;;::;;;;$$;;##>>##;;::;;>>;;oo**<<;;>>$$>>>>>>$$>>;;;;;;::;;$$>>;;$$::>>::;;$$oo&&**<<##;;>>;;::;;",
">>;;;;;;>>;;>>$$oo&&&&<<>>@@::>>;;;;;;>>$$++####>>::>>;;>>oo&&<<>>;;>>$$;;;;$$;;>>::$$>>;;>>>>;;$$;;>>;;>>$$oo&&&&<<>>@@::>>;;;;",
">>;;;;;;>>;;>>$$oo&&&&<<>>@@::>>;;;;;;>>$$++####>>::>>;;>>oo&&<<>>;;>>$$;;;;$$;;>>::$$>>;;>>>>;;$$;;>>;;>>$$oo&&&&<<>>@@::>>;;;;",
"....++++++++++....&&&&##############@@@@@@@@@@@@@@@@@@@@....&&>>######################@@@@@@....++++++++++....&&&&##############",
"....++++++++++....&&&&##############@@@@@@@@@@@@@@@@@@@@....&&>>######################@@@@@@....++++++++++....&&&&##############",
"..................&&**..      ..oooo..        ............oo&&&&......oo&&oo..    ............................&&**..      ..oooo",
"..................&&**..      ..oooo..        ............oo&&&&......oo&&oo..    ............................&&**..      ..oooo",
"oo11<<<<<<<<<<,,,,,,,,,,,,,,,,,,,,,,,,,,,,,,,,oo**oo11<<<<<<<<<<<<,,,,,,,,,,,,,,,,,,,,,,,,>>oo11<<<<<<<<<<,,,,,,,,,,,,,,,,,,,,,,",
"oo11<<<<<<<<<<,,,,,,,,,,,,,,,,,,,,,,,,,,,,,,,,oo**oo11<<<<<<<<<<<<,,,,,,,,,,,,,,,,,,,,,,,,>>oo11<<<<<<<<<<,,,,,,,,,,,,,,,,,,,,,,",
"**<<>>;;>>##>>;;>>;;>>;;>>>>;;>>>>####>>>>$$>>oo&&**<<>>####>>>>$$>>>>;;::;;$$;;;;;;::$$>>OO**<<>>;;>>##>>;;>>;;>>;;>>>>;;>>>>##",
"**<<>>;;>>##>>;;>>;;>>;;>>>>;;>>>>####>>>>$$>>oo&&**<<>>####>>>>$$>>>>;;::;;$$;;;;;;::$$>>OO**<<>>;;>>##>>;;>>;;>>;;>>>>;;>>>>##",
"&&<<;;>>##;;##>>>>;;;;>>##;;;;@@>>++@@;;##;;$$..oo&&<<>>##;;>>@@>>;;::>>>>$$$$$$>>>>$$;;>>OO&&<<;;>>##;;##>>>>;;;;>>##;;;;@@>>++",
"&&<<;;>>##;;##>>>>;;;;>>##;;;;@@>>++@@;;##;;$$..oo&&<<>>##;;>>@@>>;;::>>>>$$$$$$>>>>$$;;>>OO&&<<;;>>##;;##>>>>;;;;>>##;;;;@@>>++",
"oo<<>>>>;;##;;;;>>;;>>;;>>>>@@;;@@::;;>>>>$$;;..oo&&<<##>>##>>>>$$::;;@@##>>;;::;;;;$$>>>>OOoo<<>>>>;;##;;;;>>;;>>;;>>>>@@;;@@::",
"oo<<>>>>;;##;;;;>>;;>>;;>>>>@@;;@@::;;>>>>$$;;..oo&&<<##>>##>>>>$$::;;@@##>>;;::;;;;$$>>>>OOoo<<>>>>;;##;;;;>>;;>>;;>>>>@@;;@@::",
"oo<<>>>>##;;;;::>>;;;;>>::;;;;@@>>++$$::;;$$>>  oo**<<>>####>>;;>>;;::$$##>>$$$$>>::$$>>>>OOoo<<>>>>##;;;;::>>;;;;>>::;;;;@@>>++",
"oo<<>>>>##;;;;::>>;;;;>>::;;;;@@>>++$$::;;$$>>  oo**<<>>####>>;;>>;;::$$##>>$$$$>>::$$>>>>OOoo<<>>>>##;;;;::>>;;;;>>::;;;;@@>>++",
"**>>############++++++++++++++++++++++++++++++..&&**##############@@@@@@++++++++++++++++....**>>############++++++++++++++++++++",
"**>>############++++++++++++++++++++++++++++++..&&**##############@@@@@@++++++++++++++++....**>>############++++++++++++++++++++",
"oo&&..............oooo..      ....      ..    ..&&oo..........    ..ooXX  ......    ........oo&&..............oooo..      ....  ",
"oo&&..............oooo..      ....      ..    ..&&oo..........    ..ooXX  ......    ........oo&&..............oooo..      ....  ",
"<<<<<<<<,,,,,,,,,,,,,,,,,,&&**&&11<<<<<<<<<<<<,,,,,,,,,,,,,,,,,,,,,,&&oo11<<<<<<<<,,,,,,,,,,<<<<<<<<,,,,,,,,,,,,,,,,,,&&**&&11<<",
"<<<<<<<<,,,,,,,,,,,,,,,,,,&&**&&11<<<<<<<<<<<<,,,,,,,,,,,,,,,,,,,,,,&&oo11<<<<<<<<,,,,,,,,,,<<<<<<<<,,,,,,,,,,,,,,,,,,&&**&&11<<",
";;>>@@>>##::>>;;;;>>##;;>>..&&&&<<>>>>##>>>>;;##>>##::>>####>>>>$$##oo&&<<>>##>>@@$$>>$$##>>;;>>@@>>##::>>;;;;>>##;;>>..&&&&<<>>",
";;>>@@>>##::>>;;;;>>##;;>>..&&&&<<>>>>##>>>>;;##>>##::>>####>>>>$$##oo&&<<>>##>>@@$$>>$$##>>;;>>@@>>##::>>;;;;>>##;;>>..&&&&<<>>",
">>;;@@>>;;::;;>>@@>>;;::;;..&&%%<<;;>>##;;>>@@++>>>>>>##>>;;@@;;##$$..&&<<##>>$$>>;;$$;;##$$>>;;;;>>##::;;>>@@>>;;::;;..&&%%<<;;",
">>;;@@>>;;::;;>>@@>>;;::;;..&&%%<<;;>>##;;>>@@++>>>>>>##>>;;@@;;##$$..&&<<##>>$$>>;;$$;;##$$>>;;;;>>##::;;>>@@>>;;::;;..&&%%<<;;",
";;::;;##;;;;>>;;@@;;$$>>##..&&%%<<++>>;;>>>>;;##>>##;;##>>>>;;$$::##..&&<<>>##>>;;$$>>$$##$$;;::@@##;;>>>>;;@@;;$$>>##..&&%%<<++",
";;::;;##;;;;>>;;@@;;$$>>##..&&%%<<++>>;;>>>>;;##>>##;;##>>>>;;$$::##..&&<<>>##>>;;$$>>$$##$$;;::@@##;;>>>>;;@@;;$$>>##..&&%%<<++",
";;::@@####;;;;;;@@>>##;;;;..&&**>>++>>##>>;;####>>$$>>##;;##;;;;##;;..oo<<####>>@@$$>>$$##>>;;::@@####;;;;;;@@>>##;;;;..&&**>>++",
";;::@@####;;;;;;@@>>##;;;;..&&**>>++>>##>>;;####>>$$>>##;;##;;;;##;;..oo<<####>>@@$$>>$$##>>;;::@@####;;;;;;@@>>##;;;;..&&**>>++",
"............................&&**ooXX......................      ..    oo&&........        ..............................&&**ooXX",
"............................&&**ooXX......................      ..    oo&&........        ..............................&&**ooXX",
"oo**oooooooo&&&&&&****&&&&&&********&&&&**&&&&&&&&oo&&&&%%oo%%oo%%&&oo%%&&&&oo&&&&&&%%oo&&&&oo**oooooooo&&&&&&****&&&&&&********",
"oo**oooooooo&&&&&&****&&&&&&********&&&&**&&&&&&&&oo&&&&%%oo%%oo%%&&oo%%&&&&oo&&&&&&%%oo&&&&oo**oooooooo&&&&&&****&&&&&&********",
",,,,,,,,,,,,,,,,,,,,**oo**11<<<<<<<<<<<<,,,,,,,,,,,,,,,,,,,,,,,,,,,,,,,,,,<<&&oo11<<<<<<<<<<<<,,,,,,,,,,,,,,,,,,,,oo**11<<<<<<<<",
",,,,,,,,,,,,,,,,,,,,**oo**11<<<<<<<<<<<<,,,,,,,,,,,,,,,,,,,,,,,,,,,,,,,,,,<<&&oo11<<<<<<<<<<<<,,,,,,,,,,,,,,,,,,,,oo**11<<<<<<<<",
">>;;;;;;;;>>;;;;>>>>oo..&&<<,,>>;;>>;;>>>>$$;;,,;;;;>>##>>;;>>;;>>;;>>>>$$>>&&**<<;;>>;;>>;;>>;;;;;;;;>>;;;;>>>>oo..&&<<,,>>;;>>",
">>;;;;;;;;>>;;;;>>>>oo..&&<<,,>>;;>>;;>>>>$$;;,,;;;;>>##>>;;>>;;>>;;>>>>$$>>&&**<<;;>>;;>>;;>>;;;;;;;;>>;;;;>>>>oo..&&<<,,>>;;>>",
";;;;;;;;;;;;>>##>>##**..&&<<$$>>;;,,;;>>$$>>;;,,;;;;>>##,,@@##>>$$$$>>>>$$>>oo&&<<;;>>>>::>>;;;;;;;;;;;;>>##>>##**..&&<<$$>>;;##",
";;;;;;;;;;;;>>##>>##**..&&<<$$>>;;,,;;>>$$>>;;,,;;;;>>##,,@@##>>$$$$>>>>$$>>oo&&<<;;>>>>::>>;;;;;;;;;;;;>>##>>##**..&&<<$$>>;;##",
">>##$$;;;;##>>;;>>>>**..**<<,,>>;;;;##;;;;$$>>;;;;;;>>##,,;;##;;>>;;>>>>$$>>oo&&<<>>>>>>;;$$>>##$$;;;;##>>;;>>>>**..**<<,,>>;;;;",
">>##$$;;;;##>>;;>>>>**..**<<,,>>;;;;##;;;;$$>>;;;;;;>>##,,;;##;;>>;;>>>>$$>>oo&&<<>>>>>>;;$$>>##$$;;;;##>>;;>>>>**..**<<,,>>;;;;",
",,##++;;$$$$::@@::$$&&..**,,>>;;@@::$$;;$$;;$$::$$##;;$$;;@@$$$$;;$$::;;$$;;%%**>>;;$$$$::$$,,##++;;$$$$::@@::$$&&..**,,>>;;@@::",
",,##++;;$$$$::@@::$$&&..**,,>>;;@@::$$;;$$;;$$::$$##;;$$;;@@$$$$;;$$::;;$$;;%%**>>;;$$$$::$$,,##++;;$$$$::@@::$$&&..**,,>>;;@@::",
"..........    ....  ..oooo&&oo..........XXooXX....        ....      ........&&**......................    ....  ..oooo&&oo......",
"..........    ....  ..oooo&&oo..........XXooXX....        ....      ........&&**......................    ....  ..oooo&&oo......",
"**&&oo&&****oo&&oooooo&&**&&&&%%oooo%%oo&&&&**oo**%%oooo%%%%&&**%%oo%%&&&&****oo%%oo%%&&&&****&&oo&&****oo&&oooooo&&**&&&&%%oooo",
"**&&oo&&****oo&&oooooo&&**&&&&%%oooo%%oo&&&&**oo**%%oooo%%%%&&**%%oo%%&&&&****oo%%oo%%&&&&****&&oo&&****oo&&oooooo&&**&&&&%%oooo",
"oo11<<<<<<<<<<,,,,,,,,,,,,,,,,,,,,,,,,,,,,,,,,oo**oo11<<<<<<<<<<<<,,,,,,,,,,,,,,,,,,,,,,,,>>oo11<<<<<<<<<<,,,,,,,,,,,,,,,,,,,,,,",
"oo11<<<<<<<<<<,,,,,,,,,,,,,,,,,,,,,,,,,,,,,,,,oo**oo11<<<<<<<<<<<<,,,,,,,,,,,,,,,,,,,,,,,,>>oo11<<<<<<<<<<,,,,,,,,,,,,,,,,,,,,,,",
"**<<>>;;>>##>>;;>>;;>>;;>>>>;;>>>>####>>>>$$>>oo&&**<<>>####>>>>$$>>>>;;::;;$$;;;;;;::$$>>&&**<<>>;;>>##>>;;>>;;>>;;>>>>;;>>>>##",
"**<<>>;;>>##>>;;>>;;>>;;>>>>;;>>>>####>>>>$$>>oo&&**<<>>####>>>>$$>>>>;;::;;$$;;;;;;::$$>>&&**<<>>;;>>##>>;;>>;;>>;;>>>>;;>>>>##",
"&&<<;;>>##;;##>>>>;;;;>>##;;;;@@>>++@@;;##;;$$..oo&&<<>>##;;>>@@>>;;::>>>>$$$$$$>>>>$$;;>>&&&&<<;;>>##;;##>>>>;;;;>>##;;;;@@>>++",
"&&<<;;>>##;;##>>>>;;;;>>##;;;;@@>>++@@;;##;;$$..oo&&<<>>##;;>>@@>>;;::>>>>$$$$$$>>>>$$;;>>&&&&<<;;>>##;;##>>>>;;;;>>##;;;;@@>>++",
"oo<<>>>>;;##;;;;>>;;>>;;>>>>@@;;@@::;;>>>>$$;;..oo&&<<##>>##>>>>$$::;;@@##>>;;::;;;;$$>>>>&&oo<<>>>>;;##;;;;>>;;>>;;>>>>@@;;@@::",
"oo<<>>>>;;##;;;;>>;;>>;;>>>>@@;;@@::;;>>>>$$;;..oo&&<<##>>##>>>>$$::;;@@##>>;;::;;;;$$>>>>&&oo<<>>>>;;##;;;;>>;;>>;;>>>>@@;;@@::",
"oo<<>>>>##;;;;::>>;;;;>>::;;;;@@>>++$$::;;$$>>  oo**<<>>####>>;;>>;;::$$##>>$$$$>>::$$>>>>&&oo<<>>>>##;;;;::>>;;;;>>::;;;;@@>>++",
"oo<<>>>>##;;;;::>>;;;;>>::;;;;@@>>++$$::;;$$>>  oo**<<>>####>>;;>>;;::$$##>>$$$$>>::$$>>>>&&oo<<>>>>##;;;;::>>;;;;>>::;;;;@@>>++",
"**>>############++++++++++++++++++++++++++++++..&&**##############@@@@@@++++++++++++++++....**>>############++++++++++++++++++++",
"**>>############++++++++++++++++++++++++++++++..&&**##############@@@@@@++++++++++++++++....**>>############++++++++++++++++++++",
"oo&&..............oooo..      ....      ..    ..&&oo..........    ..ooXX  ......    ........oo&&..............oooo..      ....  ",
"oo&&..............oooo..      ....      ..    ..&&oo..........    ..ooXX  ......    ........oo&&..............oooo..      ....  ",
"<<<<<<<<,,,,,,,,,,,,,,,,,,&&**&&11<<<<<<<<<<<<,,,,,,,,,,,,,,,,,,,,,,&&oo11<<<<<<<<,,,,,,,,,,<<<<<<<<,,,,,,,,,,,,,,,,,,&&**&&11<<",
"<<<<<<<<,,,,,,,,,,,,,,,,,,&&**&&11<<<<<<<<<<<<,,,,,,,,,,,,,,,,,,,,,,&&oo11<<<<<<<<,,,,,,,,,,<<<<<<<<,,,,,,,,,,,,,,,,,,&&**&&11<<",
";;>>@@>>##::>>;;;;>>##;;>>..&&&&<<>>>>##>>>>;;##>>##::>>####>>>>$$##oo&&<<>>##>>@@$$>>$$##>>;;>>@@>>##::>>;;;;>>##;;>>..&&&&<<>>",
";;>>@@>>##::>>;;;;>>##;;>>..&&&&<<>>>>##>>>>;;##>>##::>>####>>>>$$##oo&&<<>>##>>@@$$>>$$##>>;;>>@@>>##::>>;;;;>>##;;>>..&&&&<<>>",
">>;;@@>>;;::;;>>@@>>;;::;;..&&%%<<;;>>##;;>>@@++>>>>>>##>>;;@@;;##$$..&&<<##>>$$>>;;$$;;##$$>>;;;;>>##::;;>>@@>>;;::;;..&&%%<<;;",
">>;;@@>>;;::;;>>@@>>;;::;;..&&%%<<;;>>##;;>>@@++>>>>>>##>>;;@@;;##$$..&&<<##>>$$>>;;$$;;##$$>>;;;;>>##::;;>>@@>>;;::;;..&&%%<<;;",
";;::;;##;;;;>>;;@@;;$$>>##..&&%%<<++>>;;>>>>;;##>>##;;##>>>>;;$$::##..&&<<>>##>>;;$$>>$$##$$;;::@@##;;>>>>;;@@;;$$>>##..&&%%<<++",
";;::;;##;;;;>>;;@@;;$$>>##..&&%%<<++>>;;>>>>;;##>>##;;##>>>>;;$$::##..&&<<>>##>>;;$$>>$$##$$;;::@@##;;>>>>;;@@;;$$>>##..&&%%<<++",
"##>>;;;;::::::##;;>>####::..&&&&<<>>>>;;;;;;++##;;++;;##>>##>>>>@@;;..oo<<##>>$$@@$$>>$$##>>##>>;;##::::::##;;>>####::..&&&&<<>>",
"##>>;;;;::::::##;;>>####::..&&&&<<>>>>;;;;;;++##;;++;;##>>##>>>>@@;;..oo<<##>>$$@@$$>>$$##>>##>>;;##::::::##;;>>####::..&&&&<<>>",
"++####++####++++++##++++##..&&&&##########++++++##++##++##++####++##..oo##++####++++####++##++####++######++####++++##..&&&&####",
"++####++####++++++##++++##..&&&&##########++++++##++##++##++####++##..oo##++####++++####++##++####++######++####++++##..&&&&####"
};
