/* XPM */
static char *dGlsZTAwMg__[] = {
/* columns rows colors chars-per-pixel */
"24 24 8 1 ",
"  c #382121",
". c #A04345",
"X c #BC4D4F",
"o c #4B9A27",
"O c #D8B78F",
"+ c #FFD7A8",
"@ c white",
"# c None",
/* pixels */
"########################",
"########################",
"########################",
"########################",
"########################",
"########            ####",
"#######  ....XXXXXXX ###",
"###### o .....XX...X ###",
"###### o .@ @.X XXX  ###",
"######   .@ @.XXXXXX ###",
"####### o @ @.XXXXXX ###",
"####### o ....XXXXXX ###",
"#######   .....X     ###",
"#######  ..XXXX ########",
"######## .O++++ ########",
"######   .O++++ ########",
"###### XX.O++++ ########",
"######  ...XOOX ########",
"#######  .XXXXX ########",
"######## .X  .X ########",
"########   #   #########",
"########################",
"########################",
"########################"
};
