/* XPM */
static char *result[] = {
/* columns rows colors chars-per-pixel */
"128 128 26 1 ",
"  c #202020",
". c #2C2C2C",
"X c gray19",
"o c #343434",
"O c gray22",
"+ c #400000",
"@ c #4C0000",
"# c #580000",
"$ c #640000",
"% c #700000",
"& c #7C0000",
"* c gray25",
"= c #484848",
"- c #4C4C4C",
"; c gray33",
": c gray36",
"> c #646464",
", c #880000",
"< c #980000",
"1 c #A40000",
"2 c #B00000",
"3 c #BC0000",
"4 c #C80000",
"5 c #D40000",
"6 c #E00000",
"7 c #EC0000",
/* pixels */
"OOOOOOOOOOOOOOOOOOOOOOOOOOOOOOOOOOOOOOOOOOOOOOOOOOOOOOOOOOOOOOOOOOOOOOOOOOOOOOOOOOOOOOOOOOOOOOOOOOOOOOOOOOOOOOOOOOOOOOOOOOOOOOOO",
"OOOOOOOOOOOOOOOOOOOOOOOOOOOOOOOOOOOOOOOOOOOOOOOOOOOOOOOOOOOOOOOOOOOOOOOOOOOOOOOOOOOOOOOOOOOOOOOOOOOOOOOOOOOOOOOOOOOOOOOOOOOOOOOO",
";;OO;;==========;;============;;==OO==============;;;;;;;;;;;;==================;;;;;;;;;;;;;;========OOOOOO====;;;;==========OO",
";;OO;;==========;;============;;==OO==============;;;;;;;;;;;;==================;;;;;;;;;;;;;;========OOOOOO====;;;;==========OO",
"OO777755555555555555555511====;;777755555555555555555555555555555555555511==OO;;7777777766666666666655555555554444444433333311==",
"OO777755555555555555555511====;;777755555555555555555555555555555555555511==OO;;7777777766666666666655555555554444444433333311==",
"==7744222255,,1155,,4411$$..==;;7733,,33,,33,,33&&33<<33<<33&&33&&334411%%..==OO5511442244222244%%44&&442244,,2211&&44<<4411&&..",
"==7744222255,,1155,,4411$$..==;;7733,,33,,33,,33&&33<<33<<33&&33&&334411%%..==OO5511442244222244%%44&&442244,,2211&&44<<4411&&..",
"==5511&&11,,11<<%%11,,%%$$..==;;5533,,,,11,,%%1111%%<<1111%%<<11%%11<<%%##..==;;551111&&$$11,,%%,,11&&,,1111,,11&&,,11##11%%$$..",
"==5511&&11,,11<<%%11,,%%$$..==;;5533,,,,11,,%%1111%%<<1111%%<<11%%11<<%%##..==;;551111&&$$11,,%%,,11&&,,1111,,11&&,,11##11%%$$..",
"==55&&1111%%<<1111%%11##++..==;;55,,3311,,11%%11,,11%%11%%,,&&11%%<<&&%%##..====55%%11$$,,11$$11%%11&&11,,11$$11<<&&11&&11%%@@..",
"==55&&1111%%<<1111%%11##++..==;;55,,3311,,11%%11,,11%%11%%,,&&11%%<<&&%%##..====55%%11$$,,11$$11%%11&&11,,11$$11<<&&11&&11%%@@..",
"==4411&&,,<<&&11%%,,11%%++..==;;3333,,11,,,,<<11%%,,%%11,,%%<<&&,,%%11%%++..OO==33%%11&&11,,$$11%%%%1111%%11,,1111&&11##11,,@@..",
"==4411&&,,<<&&11%%,,11%%++..==;;3333,,11,,,,<<11%%,,%%11,,%%<<&&,,%%11%%++..OO==33%%11&&11,,$$11%%%%1111%%11,,1111&&11##11,,@@..",
"==33&&1111%%11<<%%<<%%##++..====3344,,11%%11%%11%%11%%<<,,%%&&11%%<<&&%%##..OO==33<<11$$,,11&&,,%%,,&&11,,11$$11&&,,11&&11%%++..",
"==33&&1111%%11<<%%<<%%##++..====3344,,11%%11%%11%%11%%<<,,%%&&11%%<<&&%%##..OO==33<<11$$,,11&&,,%%,,&&11,,11$$11&&,,11&&11%%++..",
"==3311%%,,##%%&&##%%,,%%++..OO;;<<<<%%%%@@,,%%%%,,%%@@%%,,%%,,%%@@,,%%%%++..OO==33%%%%##%%%%@@,,@@%%##,,@@%%@@,,$$@@%%,,%%,,++..",
"==3311%%,,##%%&&##%%,,%%++..OO;;<<<<%%%%@@,,%%%%,,%%@@%%,,%%,,%%@@,,%%%%++..OO==33%%%%##%%%%@@,,@@%%##,,@@%%@@,,$$@@%%,,%%,,++..",
"==&&$$$$$$++++++++++++++++..OO==&&$$$$##################++++++++++++++++++..OO==,,$$$$$$$$$$$$$$$$$$$$##################++++++..",
"==&&$$$$$$++++++++++++++++..OO==&&$$$$##################++++++++++++++++++..OO==,,$$$$$$$$$$$$$$$$$$$$##################++++++..",
"====................      ..OO;;==..........          ....        ..........==;;OO......................          ..............",
"====................      ..OO;;==..........          ....        ..........==;;OO......................          ..............",
";;OOOOOOOO========OOOOOOOOOO==OO==============OOOOOO;;======OOOO============;;OO==;;;;;;;;::>>>>::;;;;====**OO**;;OO;;======;;OO",
";;OOOOOOOO========OOOOOOOOOO==OO==============OOOOOO;;======OOOO============;;OO==;;;;;;;;::>>>>::;;;;====**OO**;;OO;;======;;OO",
"77555555333333333333333333333311==;;==77775555555555554444444444444433333333333333333333333333333333333311==**;;7777555555555555",
"77555555333333333333333333333311==;;==77775555555555554444444444444433333333333333333333333333333333333311==**;;7777555555555555",
"22,,,,22<<&&22&&<<,,22$$22,,11++OO==;;77%%2244&&33$$,,33,,,,44<<11,,&&,,11,,11,,11&&44$$44,,<<3344<<4411++OO==OO7744&&22,,22,,22",
"22,,,,22<<&&22&&<<,,22$$22,,11++OO==;;77%%2244&&33$$,,33,,,,44<<11,,&&,,11,,11,,11&&44$$44,,<<3344<<4411++OO==OO7744&&22,,22,,22",
",,11,,11&&,,,,$$11,,$$,,1111%%++..====5522%%11&&1111,,11$$11%%$$,,11&&11&&11$$1111,,$$11,,11%%,,11%%11%%++OO==;;4422&&11,,&&11<<",
",,11,,11&&,,,,$$11,,$$,,1111%%++..====5522%%11&&1111,,11$$11%%$$,,11&&11&&11$$1111,,$$11,,11%%,,11%%11%%++OO==;;4422&&11,,&&11<<",
"%%1111,,<<$$11&&,,,,<<$$11,,%%++..OO==55%%11,,<<,,,,$$,,,,%%11,,$$11,,&&$$&&,,,,11##,,&&11%%11%%1111%%%%++..**==44&&111111&&11&&",
"%%1111,,<<$$11&&,,,,<<$$11,,%%++..OO==55%%11,,<<,,,,$$,,,,%%11,,$$11,,&&$$&&,,,,11##,,&&11%%11%%1111%%%%++..**==44&&111111&&11&&",
"11,,,,11,,&&&&,,&&11<<$$11$$%%++..OO==55%%1111&&11$$,,11$$%%11$$,,11&&,,&&11$$11,,##11$$11%%,,%%11%%11%%++..OO==4422&&11&&11<<&&",
"11,,,,11,,&&&&,,&&11<<$$11$$%%++..OO==55%%1111&&11$$,,11$$%%11$$,,11&&,,&&11$$11,,##11$$11%%,,%%11%%11%%++..OO==4422&&11&&11<<&&",
"%%11$$11%%,,&&<<$$11$$,,1111%%++..==;;5522##11&&11,,$$,,##,,%%$$11,,&&##&&11$$,,##,,11$$,,11%%,,11%%11%%++  OO==22&&1111##11&&,,",
"%%11$$11%%,,&&<<$$11$$,,1111%%++..==;;5522##11&&11,,$$,,##,,%%$$11,,&&##&&11$$,,##,,11$$,,11%%,,11%%11%%++  OO==22&&1111##11&&,,",
"%%22$$%%@@&&%%<<%%<<%%##<<%%%%++..==;;2211%%,,##%%<<%%,,$$%%,,##%%<<%%<<$$,,%%,,,,##<<%%%%,,@@%%<<%%,,%%++  **;;2211&&%%##%%<<%%",
"%%22$$%%@@&&%%<<%%<<%%##<<%%%%++..==;;2211%%,,##%%<<%%,,$$%%,,##%%<<%%<<$$,,%%,,,,##<<%%%%,,@@%%<<%%,,%%++  **;;2211&&%%##%%<<%%",
"++@@@@@@@@@@@@@@@@@@@@@@@@++++++OO==;;11$$$$$$$$$$$$$$$$$$$$$$$$$$####################################++++  ==OO11$$++$$++++$$++",
"++@@@@@@@@@@@@@@@@@@@@@@@@++++++OO==;;11$$$$$$$$$$$$$$$$$$$$$$$$$$####################################++++  ==OO11$$++$$++++$$++",
"......  ......      ......    ..OO==OO==OOoo............ooooOOOOoo......          ......        ..........OO==;;==..............",
"......  ......      ......    ..OO==OO==OOoo............ooooOOOOoo......          ......        ..........OO==;;==..............",
";;;;==OOOO==;;OO;;OO====OOOOOOOO====;;======**OO**OO**OO**======;;OO;;==**OOOOOO****====;;**OOOO**======;;==;;OO;;**OO**;;======",
";;;;==OOOO==;;OO;;OO====OOOOOOOO====;;======**OO**OO**OO**======;;OO;;==**OOOOOO****====;;**OOOO**======;;==;;OO;;**OO**;;======",
";;777755555555555555333333333333333333333333333333333311==;;;;7777555555555555555555553333333333333333333333333333333333333311==",
";;777755555555555555333333333333333333333333333333333311==;;;;7777555555555555555555553333333333333333333333333333333333333311==",
";;77,,2233&&33&&33&&22,,22,,2244,,22,,22,,3322$$2244%%++OO==;;7733%%551122,,1122,,22<<22&&$$11,,%%,,11&&,,11<<,,11&&,,11##11++..",
";;77,,2233&&33&&33&&22,,22,,2244,,22,,22,,3322$$2244%%++OO==;;7733%%551122,,1122,,22<<22&&$$11,,%%,,11&&,,11<<,,11&&,,11##11++..",
"OO7722,,11<<11&&%%,,1111,,<<,,11,,$$11%%11,,$$,,11%%22++..==::5533<<11$$11$$,,%%<<,,$$11$$,,11$$11%%11&&11,,11$$11<<&&11&&%%++..",
"OO7722,,11<<11&&%%,,1111,,<<,,11,,$$11%%11,,$$,,11%%22++..==::5533<<11$$11$$,,%%<<,,$$11$$,,11$$11%%11&&11,,11$$11<<&&11&&%%++..",
"==33$$1111%%,,##11$$11%%11,,<<11$$,,11%%,,11,,$$&&11%%++..;;>>5533&&11&&11$$11%%<<11&&11&&11,,$$11%%%%11<<%%<<,,1111&&11##%%++..",
"==33$$1111%%,,##11$$11%%11,,<<11$$,,11%%,,11,,$$&&11%%++..;;>>5533&&11&&11$$11%%<<11&&11&&11,,$$11%%%%11<<%%<<,,1111&&11##%%++..",
"==3322,,11@@11##%%,,11,,%%&&11&&,,$$&&11$$11,,$$11%%##++..;;::55%%11%%<<,,$$,,<<%%11$$,,$$,,11&&,,%%,,&&11,,11$$11&&,,11&&%%++..",
"==3322,,11@@11##%%,,11,,%%&&11&&,,$$&&11$$11,,$$11%%##++..;;::55%%11%%<<,,$$,,<<%%11$$,,$$,,11&&,,%%,,&&11,,11$$11&&,,11&&%%++..",
";;33%%$$11@@,,&&11$$11##11$$11,,$$,,11,,$$11$$,,&&&&22++..==;;5544%%11%%11,,11,,%%11$$11##%%%%@@11@@11##11@@1111,,$$@@%%,,%%++..",
";;33%%$$11@@,,&&11$$11##11$$11,,$$,,11,,$$11$$,,&&&&22++..==;;5544%%11%%11,,11,,%%11$$11##%%%%@@11@@11##11@@1111,,$$@@%%,,%%++..",
"==4411$$%%%%%%##%%@@%%%%,,$$,,%%%%,,%%%%$$%%<<%%<<%%%%++..OO;;4411%%<<%%,,##%%%%%%%%$$,,%%,,@@11##%%11@@%%,,@@11##11@@11%%%%++..",
"==4411$$%%%%%%##%%@@%%%%,,$$,,%%%%,,%%%%$$%%<<%%<<%%%%++..OO;;4411%%<<%%,,##%%%%%%%%$$,,%%,,@@11##%%11@@%%,,@@11##11@@11%%%%++..",
"==11<<$$$$$$$$$$$$$$$$$$$$$$$$$$$$@@@@@@@@@@@@@@@@@@++++..OO;;11$$$$$$$$$$$$$$$$$$$$$$$$$$$$########################++##&&##++..",
"==11<<$$$$$$$$$$$$$$$$$$$$$$$$$$$$@@@@@@@@@@@@@@@@@@++++..OO;;11$$$$$$$$$$$$$$$$$$$$$$$$$$$$########################++##&&##++..",
"====OO..................................OOOOOO............======................          ..OOOOOO..      ......................",
"====OO..................................OOOOOO............======................          ..OOOOOO..      ......................",
";;;;;;;;;;====OO==OOOOOO==;;>>>>;;;;;;======****OOOO**OOOO**;;======;;OO;;==;;==**OO**OO**==;;;;====**OO**======;;OO;;======;;OO",
";;;;;;;;;;====OO==OOOOOO==;;>>>>;;;;;;======****OOOO**OOOO**;;======;;OO;;==;;==**OO**OO**==;;;;====**OO**======;;OO;;======;;OO",
"3333333333333333333311==OO;;5555555555555555333333333333333333333333333333333311==;;;;447755555555555555555533333333333333333333",
"3333333333333333333311==OO;;5555555555555555333333333333333333333333333333333311==;;;;447755555555555555555533333333333333333333",
"11221122<<4422224411++OO==OO5511$$11%%1111$$11,,1111%%11,,$$1111$$1111%%11&&11++OO==;;5511&&11%%1111$$11&&,,&&11%%11,,11&&11%%11",
"11221122<<4422224411++OO==OO5511$$11%%1111$$11,,1111%%11,,$$1111$$1111%%11&&11++OO==;;5511&&11%%1111$$11&&,,&&11%%11,,11&&11%%11",
"11&&,,11<<11&&11,,%%++..==;;55$$11&&,,11&&11<<%%11,,,,%%,,,,11,,$$11%%,,11$$11++OO;;;;5511##11%%11,,$$11,,11&&,,,,<<%%<<&&<<,,%%",
"11&&,,11<<11&&11,,%%++..==;;55$$11&&,,11&&11<<%%11,,,,%%,,,,11,,$$11%%,,11$$11++OO;;;;5511##11%%11,,$$11,,11&&,,,,<<%%<<&&<<,,%%",
",,&&11<<&&11&&<<11%%++..==OO55$$1111&&<<11%%11%%11,,11##11@@,,,,11,,%%<<11&&11++OO;;>>5511&&11%%11,,11,,1111&&11%%<<,,11<<&&11%%",
",,&&11<<&&11&&<<11%%++..==OO55$$1111&&<<11%%11%%11,,11##11@@,,,,11,,%%<<11&&11++OO;;>>5511&&11%%11,,11,,1111&&11%%<<,,11<<&&11%%",
"11,,&&11<<11<<&&,,%%++OO==;;55<<$$11&&11&&##<<,,,,,,%%,,11$$11,,$$,,<<%%,,11&&++OO;;>>55&&1111%%11$$1111&&&&11&&11,,<<<<,,&&%%,,",
"11,,&&11<<11<<&&,,%%++OO==;;55<<$$11&&11&&##<<,,,,,,%%,,11$$11,,$$,,<<%%,,11&&++OO;;>>55&&1111%%11$$1111&&&&11&&11,,<<<<,,&&%%,,",
"11,,&&11&&11&&<<11%%++OO====55$$11&&##<<11%%,,,,11,,11%%,,@@$$<<$$11<<%%11&&11++OO==;;4411&&1111%%11,,,,&&11&&11%%<<,,11&&,,11%%",
"11,,&&11&&11&&<<11%%++OO====55$$11&&##<<11%%,,,,11,,11%%,,@@$$<<$$11<<%%11&&11++OO==;;4411&&1111%%11,,,,&&11&&11%%<<,,11&&,,11%%",
"%%%%,,<<%%%%<<%%%%%%++OO====<<$$1111##11&&%%11%%11$$11##,,$$11,,$$<<%%<<11$$&&++..==;;4411##11%%1111,,11,,11&&11%%<<%%<<&&1111%%",
"%%%%,,<<%%%%<<%%%%%%++OO====<<$$1111##11&&%%11%%11$$11##,,$$11,,$$<<%%<<11$$&&++..==;;4411##11%%1111,,11,,11&&11%%<<%%<<&&1111%%",
"++++@@@@@@@@@@@@@@++++..====11$$$$$$$$$$$$$$$$$$############################++++..====11$$$$$$$$$$$$$$$$$$$$$$$$$$$$$$########++",
"++++@@@@@@@@@@@@@@++++..====11$$$$$$$$$$$$$$$$$$############################++++..====11$$$$$$$$$$$$$$$$$$$$$$$$$$$$$$########++",
"........................==;;==..        ....OOOOOO..          ..................OO======........OOOO==OO....      ..............",
"........................==;;==..        ....OOOOOO..          ..................OO======........OOOO==OO....      ..............",
";;==;;OO==OOOO====OOOOOOOO====OOOOOO==========;;;;====OOOOOO;;======;;OO==OO==OO====;;==;;OO;;==;;::>>;;--====OO;;==;;==;;OO;;OO",
";;==;;OO==OOOO====OOOOOOOO====OOOOOO==========;;;;====OOOOOO;;======;;OO==OO==OO====;;==;;OO;;==;;::>>;;--====OO;;==;;==;;OO;;OO",
"OO77555555555555553333333333333333333333333333333333333333333311OO;;OO77775555555555555555333333333333333333333333333333333311==",
"OO77555555555555553333333333333333333333333333333333333333333311OO;;OO77775555555555555555333333333333333333333333333333333311==",
";;5511,,,,11$$1111&&<<11&&11%%,,11$$11&&11,,11$$11$$1111&&%%11++OO==;;771111$$11$$11##11%%11##11,,##<<,,%%11,,&&11&&<<%%,,11++..",
";;5511,,,,11$$1111&&<<11&&11%%,,11$$11&&11,,11$$11$$1111&&%%11++OO==;;771111$$11$$11##11%%11##11,,##<<,,%%11,,&&11&&<<%%,,11++..",
"==5511$$11,,$$11,,<<&&11$$,,##11<<$$11##,,<<,,$$11&&11&&11%%<<++..====55,,11$$,,$$&&##,,##<<&&11##11$$11%%,,%%11,,&&<<11$$,,++..",
"==5511$$11,,$$11,,<<&&11$$,,##11<<$$11##,,<<,,$$11&&11&&11%%<<++..====55,,11$$,,$$&&##,,##<<&&11##11$$11%%,,%%11,,&&<<11$$,,++..",
"==55,,$$11$$,,%%$$11$$11,,&&,,11$$<<,,,,##&&11@@<<##,,$$,,,,%%++..OO==55,,11$$$$,,11&&##11&&##<<11##11%%%%11%%11&&11%%,,$$11++..",
"==55,,$$11$$,,%%$$11$$11,,&&,,11$$<<,,,,##&&11@@<<##,,$$,,,,%%++..OO==55,,11$$$$,,11&&##11&&##<<11##11%%%%11%%11&&11%%,,$$11++..",
"OO5511,,11,,$$11,,&&<<11&&11##,,11$$11##,,11##<<11&&111111%%&&++..OO==5511$$11,,$$11##11%%<<&&&&##,,$$11&&,,<<,,<<&&%%11,,11++..",
"OO5511,,11,,$$11,,&&<<11&&11##,,11$$11##,,11##<<11&&111111%%&&++..OO==5511$$11,,$$11##11%%<<&&&&##,,$$11&&,,<<,,<<&&%%11,,11++..",
";;5511$$,,11$$11$$11$$11$$11%%11$$$$11##,,&&11&&,,$$<<$$,,%%11++  OO;;5511$$$$11$$&&##11##11##<<##11$$,,%%11%%&&11&&<<,,$$%%++..",
";;5511$$,,11$$11$$11$$11$$11%%11$$$$11##,,&&11&&,,$$<<$$,,%%11++  OO;;5511$$$$11$$&&##11##11##<<##11$$,,%%11%%&&11&&<<,,$$%%++..",
"OO4411$$11$$,,%%,,<<&&11,,,,,,11<<$$,,&&##$$11@@11%%<<&&11%%11++  OO;;44%%11$$,,$$11##&&11&&##<<%%,,$$11%%11%%11&&<<%%11$$11++..",
"OO4411$$11$$,,%%,,<<&&11,,,,,,11<<$$,,&&##$$11@@11%%<<&&11%%11++  OO;;44%%11$$,,$$11##&&11&&##<<%%,,$$11%%11%%11&&<<%%11$$11++..",
";;11$$$$$$$$$$$$$$$$$$@@@@@@@@@@@@@@@@@@@@@@@@@@@@@@@@@@@@@@@@++..==;;11$$$$$$$$$$$$$$$$$$##########@@@@@@@@@@@@@@@@@@@@@@++++..",
";;11$$$$$$$$$$$$$$$$$$@@@@@@@@@@@@@@@@@@@@@@@@@@@@@@@@@@@@@@@@++..==;;11$$$$$$$$$$$$$$$$$$##########@@@@@@@@@@@@@@@@@@@@@@++++..",
"OO==....................OOOOOO..        ......        ....    ....==OO==............      ..ooOOoo..  ........      ............",
"OO==....................OOOOOO..        ......        ....    ....==OO==............      ..ooOOoo..  ........      ............",
";;OO;;OO;;==;;========;;>>>>;;==;;OO;;==;;==**OOOOOO**==;;====OO====;;OO;;================--;;;;;;--========OOXX    XXOO====;;==",
";;OO;;OO;;==;;========;;>>>>;;==;;OO;;==;;==**OOOOOO**==;;====OO====;;OO;;================--;;;;;;--========OOXX    XXOO====;;==",
"555555555533333333333333333333333311==;;==7777555555555555555533333333333333333333333333333311==OO;;7755555555553333333333333333",
"555555555533333333333333333333333311==;;==7777555555555555555533333333333333333333333333333311==OO;;7755555555553333333333333333",
"&&11##1111$$<<$$11&&44&&11$$11&&11++..====5511111111$$11@@11&&11$$11$$11<<11$$11$$11##11%%$$++OO==;;5511$$,,11##11%%11%%11$$11%%",
"&&11##1111$$<<$$11&&44&&11$$11&&11++..====5511111111$$11@@11&&11$$11$$11<<11$$11$$11##11%%$$++OO==;;5511$$,,11##11%%11%%11$$11%%",
"11&&&&11&&11$$<<&&$$11##&&$$,,$$,,++..====55&&11%%11$$%%@@&&<<&&11,,$$,,<<$$&&,,%%,,##11$$11++oo==;;55$$11##11%%11%%,,11%%11,,@@",
"11&&&&11&&11$$<<&&$$11##&&$$,,$$,,++..====55&&11%%11$$%%@@&&<<&&11,,$$,,<<$$&&,,%%,,##11$$11++oo==;;55$$11##11%%11%%,,11%%11,,@@",
"11&&##&&11$$<<$$&&11&&##11,,$$<<&&++..==**55&&&&%%11$$&&&&11##11@@1111$$11$$11$$,,##,,,,$$%%++..==;;55$$11%%%%1111,,%%,,%%$$%%,,",
"11&&##&&11$$<<$$&&11&&##11,,$$<<&&++..==**55&&&&%%11$$&&&&11##11@@1111$$11$$11$$,,##,,,,$$%%++..==;;55$$11%%%%1111,,%%,,%%$$%%,,",
"&&<<##<<$$$$11$$11&&11##&&%%$$11$$++..==**5511@@%%11$$11@@11&&<<$$11$$,,&&$$11$$11,,##%%<<$$++..==;;5511$$##11,,%%%%11%%11$$%%11",
"&&<<##<<$$$$11$$11&&11##&&%%$$11$$++..==**5511@@%%11$$11@@11&&<<$$11$$,,&&$$11$$11,,##%%<<$$++..==;;5511$$##11,,%%%%11%%11$$%%11",
"$$11&&11$$11$$,,11$$11&&##,,11&&,,++..==**55@@1111$$11&&%%,,##&&@@11$$11$$&&&&$$,,%%##,,%%$$++..====55$$11,,11%%11,,%%%%##11%%11",
"$$11&&11$$11$$,,11$$11&&##,,11&&,,++..==**55@@1111$$11&&%%,,##&&@@11$$11$$&&&&$$,,%%##,,%%$$++..====55$$11,,11%%11,,%%%%##11%%11",
"$$11&&&&$$<<<<$$<<$$&&##11$$11$$<<++..====55@@11%%11$$&&&&,,@@<<$$,,@@11&&$$11,,$$11##11##,,++..OO==55$$11##%%##11%%11%%##$$11@@",
"$$11&&&&$$<<<<$$<<$$&&##11$$11$$<<++..====55@@11%%11$$&&&&,,@@<<$$,,@@11&&$$11,,$$11##11##,,++..OO==55$$11##%%##11%%11%%##$$11@@",
"&&<<##11$$$$,,$$&&&&11##11$$%%,,&&++..==;;4411@@%%11$$11@@,,$$11$$11%%$$11$$&&11$$,,%%,,$$,,++..OO==44$$$$##11##11%%11%%11$$11%%",
"&&<<##11$$$$,,$$&&&&11##11$$%%,,&&++..==;;4411@@%%11$$11@@,,$$11$$11%%$$11$$&&11$$,,%%,,$$,,++..OO==44$$$$##11##11%%11%%11$$11%%",
"@@@@@@@@@@@@@@@@@@@@@@@@@@@@@@@@++++..====11++++++++++@@@@@@@@@@@@@@@@@@@@@@@@@@@@@@@@@@@@++++  ==;;11++++@@@@@@@@@@@@@@@@@@@@@@",
"@@@@@@@@@@@@@@@@@@@@@@@@@@@@@@@@++++..====11++++++++++@@@@@@@@@@@@@@@@@@@@@@@@@@@@@@@@@@@@++++  ==;;11++++@@@@@@@@@@@@@@@@@@@@@@",
"......................................==;;==OOoooo............................          ..      OO====............          ....",
"......................................==;;==OOoooo............................          ..      OO====............          ....",
"OO;;OO;;OOOOOO==========;;;;OO========;;;;;;;;;;======;;======;;====OO======**OOOO**OOOO**==**OO**;;====OO;;========**OO**======",
"OO;;OO;;OOOOOO==========;;;;OO========;;;;;;;;;;======;;======;;====OO======**OOOO**OOOO**==**OO**;;====OO;;========**OO**======",
";;;;;;;;;;;;;;;;;;;;;;;;;;;;;;;;;;;;;;;;;;;;;;;;;;;;;;;;;;;;;;;;;;;;;;;;;;;;;;;;;;;;;;;;;;;;;;;;;;;;;;;;;;;;;;;;;;;;;;;;;;;;;;;;",
";;;;;;;;;;;;;;;;;;;;;;;;;;;;;;;;;;;;;;;;;;;;;;;;;;;;;;;;;;;;;;;;;;;;;;;;;;;;;;;;;;;;;;;;;;;;;;;;;;;;;;;;;;;;;;;;;;;;;;;;;;;;;;;;"
};
