/* XPM */
static char *result[] = {
/* columns rows colors chars-per-pixel */
"32 32 5 1 ",
"  c black",
". c #FE9C01",
"X c #FEBE06",
"o c #EAB433",
"O c None",
/* pixels */
"OOOOOOOOOOOOOOOOOOOOOOOOOOOOOOOO",
"OOOOOOOOOOOOOOOOOOOOOOOOOOOOOOOO",
"OOOOOOOOOOOOOOOOOOOOOOOOOOOOOOOO",
"OOOOOOOOOOOOOOOOOOOOOOOOOOOOOOOO",
"OOOOOOOOOOOOOOOOOOOOOOOOOOOOOOOO",
"OOOOOOOOOOOOOOOOOOOOOOOOOOOOOOOO",
"OOOOOOOOOOOOO      OOOOOOOOOOOOO",
"OOOOOOOOOOO  XXXXXX  OOOOOOOOOOO",
"OOOOOOOOOO XX......XX OOOOOOOOOO",
"OOOOOOOOO XX.XXXXXX.XX OOOOOOOOO",
"OOOOOOOOO X.XXoooXXXoX OOOOOOOOO",
"OOOOOOOO X.XXXoXX.XXXoX OOOOOOOO",
"OOOOOOOO X.XoooXXXoXXoX OOOOOOOO",
"OOOOOOOO X.XoXXXXXX.XoX OOOOOOOO",
"OOOOOOOO X.XoXXXXXX.XoX OOOOOOOO",
"OOOOOOOO X.XX.XXX...XoX OOOOOOOO",
"OOOOOOOO X.XXXoXX.XXXoX OOOOOOOO",
"OOOOOOOOO X.XXX...XXoX OOOOOOOOO",
"OOOOOOOOO XXoXXXXXXoXX OOOOOOOOO",
"OOOOOOOOOO XXooooooXX OOOOOOOOOO",
"OOOOOOOOOOO  XXXXXX  OOOOOOOOOOO",
"OOOOOOOOOOOOO      OOOOOOOOOOOOO",
"OOOOOOOOOOOOOOOOOOOOOOOOOOOOOOOO",
"OOOOOOOOOOOOOOOOOOOOOOOOOOOOOOOO",
"OOOOOOOOOOOOOOOOOOOOOOOOOOOOOOOO",
"OOOOOOOOOOOOOOOOOOOOOOOOOOOOOOOO",
"OOOOOOOOOOOOOOOOOOOOOOOOOOOOOOOO",
"OOOOOOOOOOOOOOOOOOOOOOOOOOOOOOOO",
"OOOOOOOOOOOOOOOOOOOOOOOOOOOOOOOO",
"OOOOOOOOOOOOOOOOOOOOOOOOOOOOOOOO",
"OOOOOOOOOOOOOOOOOOOOOOOOOOOOOOOO",
"OOOOOOOOOOOOOOOOOOOOOOOOOOOOOOOO"
};
