/* XPM */
static char *result[] = {
/* columns rows colors chars-per-pixel */
"32 32 5 1 ",
"  c black",
". c #FEAD04",
"X c #FEBE08",
"o c #F6C638",
"O c None",
/* pixels */
"OOOOOOOOOOOOOOOOOOOOOOOOOOOOOOOO",
"OOOOOOOOOOOOOOOOOOOOOOOOOOOOOOOO",
"OOOOOOOOOOOOOOOOOOOOOOOOOOOOOOOO",
"OOOOOOOOOOOOOOOOOOOOOOOOOOOOOOOO",
"OOOOOOOOOOOOOOOOOOOOOOOOOOOOOOOO",
"OOOOOOOOOOOOOOOOOOOOOOOOOOOOOOOO",
"OOOOOOOOOOOOO      OOOOOOOOOOOOO",
"OOOOOOOOOOOO XXXXXX OOOOOOOOOOOO",
"OOOOOOOOOOO X.....XX OOOOOOOOOOO",
"OOOOOOOOOO X.XXXXXoXX OOOOOOOOOO",
"OOOOOOOOOO X.XooXXoXX OOOOOOOOOO",
"OOOOOOOOO X.XXoX.XXoXX OOOOOOOOO",
"OOOOOOOOO X.oooXXoXoXX OOOOOOOOO",
"OOOOOOOOO X.oXXXXX.oX. OOOOOOOOO",
"OOOOOOOOO X.oXXXXX.oX. OOOOOOOOO",
"OOOOOOOOO X.X.XX...oX. OOOOOOOOO",
"OOOOOOOOO X.XXoX.XXoX. OOOOOOOOO",
"OOOOOOOOOO X.XX..XoX. OOOOOOOOOO",
"OOOOOOOOOO X.XXXXXoX. OOOOOOOOOO",
"OOOOOOOOOOO XoooooX. OOOOOOOOOOO",
"OOOOOOOOOOOO XXXXX. OOOOOOOOOOOO",
"OOOOOOOOOOOOO      OOOOOOOOOOOOO",
"OOOOOOOOOOOOOOOOOOOOOOOOOOOOOOOO",
"OOOOOOOOOOOOOOOOOOOOOOOOOOOOOOOO",
"OOOOOOOOOOOOOOOOOOOOOOOOOOOOOOOO",
"OOOOOOOOOOOOOOOOOOOOOOOOOOOOOOOO",
"OOOOOOOOOOOOOOOOOOOOOOOOOOOOOOOO",
"OOOOOOOOOOOOOOOOOOOOOOOOOOOOOOOO",
"OOOOOOOOOOOOOOOOOOOOOOOOOOOOOOOO",
"OOOOOOOOOOOOOOOOOOOOOOOOOOOOOOOO",
"OOOOOOOOOOOOOOOOOOOOOOOOOOOOOOOO",
"OOOOOOOOOOOOOOOOOOOOOOOOOOOOOOOO"
};
