/* XPM */
static char *result[] = {
/* columns rows colors chars-per-pixel */
"128 128 83 1 ",
"  c gray6",
". c #13120F",
"X c #151515",
"o c #181716",
"O c #171618",
"+ c #191719",
"@ c #171818",
"# c #1B1B1B",
"$ c #241F1C",
"% c #26211D",
"& c #29231E",
"* c #1E1E21",
"= c #201F21",
"- c #1F2020",
"; c #232323",
": c #2A2522",
"> c #2D2822",
", c #252528",
"< c #29272A",
"1 c #272829",
"2 c #2A2A2A",
"3 c #302B26",
"4 c #322E28",
"5 c #38322D",
"6 c #2E2E30",
"7 c #333333",
"8 c #393330",
"9 c #3E3E3E",
"0 c #42392E",
"q c #453B31",
"w c #4F4337",
"e c #52453B",
"r c #564B3E",
"t c #424242",
"y c #4B4B4B",
"u c #574A41",
"i c #5A4D43",
"p c #5D5046",
"a c #5F5348",
"s c #62564B",
"d c #65584E",
"f c #BA9E61",
"g c #BDA162",
"h c #BFA16E",
"j c #B6A171",
"k c #BCA575",
"l c #BDA877",
"z c #BEAA7A",
"x c #C1A465",
"c c #C5A56C",
"v c #C6A86D",
"b c #C8A96F",
"n c #C3A673",
"m c #C6A974",
"M c #C8AA72",
"N c #C1A678",
"B c #C4AC7C",
"V c #C9AD7B",
"C c #C4B07F",
"Z c #CCB07E",
"A c #C5AF81",
"S c #C9AE80",
"D c #C5B282",
"F c #CAB384",
"G c #CBB887",
"H c #CAB689",
"J c #CCB98B",
"K c #D1B686",
"L c #D2BA8D",
"P c #CEBB91",
"I c #D1BF93",
"U c #D2C495",
"Y c #D4C69A",
"T c #D6C99D",
"R c #D9CA9F",
"E c #DCCDA3",
"W c #DBCDA9",
"Q c #DDD0A5",
"! c #DED1AB",
"~ c #E1D2A7",
"^ c #E1D3AC",
"/ c #E8DAAD",
"( c #E2D4B4",
/* pixels */
";;;,;;;--1@X XXoXoO@XX@#-#-;;;;-;;;;%;--##o@#o#;#oXXXo@#;#-#1;;##;;;;2#,,@XXXX @XX X@@O@*#;-;;;;;;,;1112;1##OoX@oo XXo-#@*;-;-;-",
"###-;22-OoXXX X#@@XXo@OX@##X@@o;;@##@#;@##Xo@o#;-Xo@##@#o###o@##;@oo#-;-;#oXXXoXXXOXo@#Xo##@@%-1;@;#217;;%@@oX@@X XXX@XX#62;#-##",
"##,8t-%XX@XXXXXX@oXXX XX@Xo#1##;;##6;#-o@@X ###@# #-;o-oX@#*####-o@#-@##@;ooo@XoX  X#XoXXX##-#@;;;271#:;#@oXoX@OX   o X XXo###@%",
";#76###@X  @X  XoX XXXXoXXXo;-2,;1-;##@@@oXX@*#o#X#;#@OXo@@@###;;@-#oXo@@oX#X@XXOX  @#oX oX#--6;:#2*@X##-@XX #XX@X X@  XXXXX#,@#",
"-#7#-#;#  X  X@#o oOXXX XoXo#6#11;%@#-oo#XX oX#XXo#@#O#oXXXXO-##;@#O#@#-X  o#XXXo XXo###oXo@o2-,1#;@@-@@##X#XooXXXXXX X  XXo#1@#",
"##;o@-#@XXXXXO@X*@@#@@ X o#@%-621;###@X@##@##O#oXXX@###oo@@@X@#-;##o##@ XoO@XoXXOXXoX#@#@@##o#%11-#@-;-%#;@##@OXXX X X XX X####1",
"2#o##-##Xo X O@we##;#OXXX@@@-##,,#o##@Oo@@@X@@;@@#o#X@@#XXXXoX##;#o#o@oXX@XXXXXweo@-oX@@###,-;;;;%@##%--#;*#@X@o@XXXoXXOoXX@,X;#",
";#;@####@@X XoXDDo;o#oXo XX#X@@%,#@###X###oo@o@o#X#@XOXXoX XoX@#####O@o#XXX*XXXAzX# XXX#@##1#,;,,@@;@#@;--#--ooo@XX  XX#@XX@@@X%",
"#X##o-###oXO#-oBAO#X@# XXXo@###@;@###@@#@ @#@X#1-@@###@XXX.XX X@oX@@##*oX@##@@oAB+oXo@Xo##%11@,#1##;@;#;###;oXX##o X Xo@XXXXXXo@",
"#XXX@;@@oo@X#X#NB*XX#@X@XX@oX@###@#o##@oXXo#-@#:;#o##-@@@Xo @Xo@@o@X#########X#NN*XO##Xo#X@-##;-2-%-%,#--#-#@o@$-#XXOXXo XXXX#@#",
"XX o######-#XXYNVUoX#@X XX@o#@@oo##X##XOX@%#@@;,1######@@Xo XXXXo@XX#####*###OYnmYoX###O@#####,oX#X-#@X;*##%#@#;-#@ooX@XXXX- XoX",
"@oXX#####*#@X%GhnH&o#@oO@XX@@o@Xo###@o#@o#@@o-#;,#;#####-oXX@XXX@@oo@o##;###@&GnnJ&@*###,#@@@%#o@---;##;##@#@##;;@#O@@@oXXXX#XoX",
"oXX@X@@o###o#EDccDR#oXoooX@XooXX@#@@##o@@X@##-#;,@-%o##;*#XoXXXXo#oXoO@#;#@X-EDnnHQ##;*###-@-##OX###;#@######;@;;O##o#*@@o o@o@X",
"XoX#X##Xo@#$EUDvcBU^:OXX X#XXX X#Oo@X#-ooo@;;#@,;@#;#@;####oXo XO@#;#@##@@@%QUDvcJY~:##$--###@##@@#-#@#@##@2,#@;-o#,;@#o##@@XX@@",
"@XXoXXX#o#YHCDzhxBDDHU*OXoooX#@Oo#@@#o@X###@#o@;%@@@###@###XXoXXoXX-#ooo%#YGCDBvcBDDJY#;#;%-@#@Xo@#,;#o#;-;#@@@;%@@@@###@X@@o@oX",
"@X@OoXwBAFVVMccffhvvnNkJzi@ @@OX@XooXX@@;;;,;;;;-;;,1;;###oXO@X XX@-#orCDHZmMvvhxMvMVVBHHa#@##XX#o#;##;22;;;;;;##;;;1;;###XXoX X",
"o*X#+oilAVNnccffgcgchZkNlqX@XX OX@@@X@@@*,;;;;;;;;;1;,;-@oX@XXXXXoOO#*ikABNVcccgxvcnmVVCzq##Xoo@#@*-;#;#--%;;;;--;;,;;-###XOXX@X",
"oO#o###O##YGDDBccBDDHU##XXX XXXXXOoo@@#Xo##@@;-;;o@##*;oXXX Xo@O#X X###X#,EJJHHMvFDDJU#+o###X@@##@@%##;Xo##@#;#;;@o#@##@##@@OXo ",
"XX@##o##oO@:QUHcgCUE:oXXXXXXo  Xo@o@#OoXoX@#%##;;@##-@##XXXXXXXXX XXO ##@#,>!EHMvDYQ&ooX@@##@XO#o@#;@##o@XX-112%;#-#*@oo#o@o@@XX",
"#@###@X#@#@@#EDccDE#@XX@XoXX XO@#-#o#oXoo@X@#-@,;o-%#@@OooXX XX#X    X@*@%@o;(HmbDQ#XXXX####XXoo#;######@@X#-22;;#;-#XX##@oo@oo@",
"X@@#@@#-#@;#O,JnmH%o@Xo#XXX @##o#@@#o@XXXo#@o#@;;##@##@#X@XoooO- XX X#O@#*;;#$JNmH&o@#@o @@O##--@###@;###@##@2,,1#;@-#X@ @oX@#oo",
"o#o##%##;1#,+#YNNToo#Xo@o#X@@@#@##o@X;@Xo@@@o@#;;#@#o@#@XXX@@@#-@OXXo@o@###;##EVN/#o@##@@##;##;#;;oo#;######;,222#@#-#@o@@@##@@X",
"@#@###o####-##4Fk;o;#XX@XO#XXXX@@##@#-XoXX;XXX@,;#X@X@o@XoX@X@-###ooo-#;o@o##=;FN-@#@###X#@##;##2#-##;##;-####22;;#-%-###;o#@o#o",
"#oO#@#######<##HF1;##o -X#  XXXoXX#Oo##XXXXXoX@#1#ooo@OXX@X@#oo#-o@@o*@#;#####@DA###@#@#@o%@###;2;;#-##@#oo###21,-%#@#@####O@@X#",
",#*-@@#@-##---#BD@oXXXX#Xo#XXXo@@@@##oX o@XX XXO#oXXX@oXXXoX@X###@#@#;oo#@@#OXoABo#O@@@o@o##;;@12-#######-@#;#;-;####-#####X##o#",
"1###@##@@O####-ee@Xo o  XX@ XX#-##@Xo@XXoo @XXX@@XXXoX@Xo@@OoX#-1#oo###@@@Oo#@#rp#@###@##o###;2222###;X#;##oX-#;,-#####o@o#o@@##",
"12##%#X@oXoo##o+O#;#X@@XX@oXo@#-##@oXXXoXX @oX XoO@oXX @;@#@X@#;;#oo$#X@#o#@oo@;o#;,o##@####%122,%#-##-#;#@-#;%@;#%@@###;###o@#1",
",27%#@@#XX@@###oo##X X#@X-X@o##;,@-#oX@o   XX XXX#@XOXoXOo#oX;@;1#-X##@#Xo##@@@o@##;,##@#####7111,,#-;-1#-##-,-#######-##*;#o;@,",
";-#1#o@#@@O###-##o XXX X#####2#;-o##XXX@X  XX @X#XXooX@@#oo@##@;;-#;#@##@@##*##*##@##@-;##@#,,;;;@##;#2%;##%%,###@;o###@@#@@###,",
";#;-##X#o##-#;;@@oX   XX@#@###o**o###oXX X X XXXX #X XX@o#@##@@,;@##;@######@#Oo####X@o@#o@;##@;;;;12##-#######@#@###;#X@@@:##@;",
";@#####@@#o####O@X X XXX@##*ooX#-o@#@##XXXXX Xo  X XXXXX@##o@@o#;o#####@#@@@ooXXoo@X@##@o#####%;;@;#%;-#;#@,#@#@###o@@oXo#%,;@@;",
"-;-;%;;##@Xo@#XXXOX  Xoo;;-;;--###-#-#O@X@X X#X X X XX@@#;-%;;--;-;;,;;2##Xo#o@XoXXXoX###;;;1;;;-;;;;121#-X##@####o@X@@#-2,;1;;#",
"-;;;,;;;##o#o@#Xo@ XXXXO#--,;-;##-#;###Oo@XXXXXXXX  X@@##*;#;;;-;;;;;;--##X@XXO@o@ XXo@##;,;,;,#-;;,;;,1;##;oo-#O;##X@o#;-,;;;;;",
";oo#@-%@@@##@@oX X X# oXX##@@@o#-ooo@#;@XXX   XX  XOOX#@@######;;##@##;X@O@@XXoXXXX@@ XX@####o@#;o1#@22&-@##Xo;####XXo@#@#;;#@,;",
";@#,,#######@XX   X X X@Xo@###-;-O@##@XX X  X  X XX X O#Xo#####;-@;;##OXo#oX@o#X XXoO o XX@%;;@;;o##-@#@o@@#*-;@@XoXoX#*o#*-62#%",
";#;1###-####o@XXoX XX  #XXX@##o1-@-#XXXXX  X  X XX XXX XXoo@##o;-@##Ooo@@#X--oXX@X@##-#@oX@@2#@;;@##@@o###@@o####oXX#@o@;#@#12#,",
",#2#-##-#@XXoXXo X XXXX@oXoXX#@;;@#oXX XX  XXXXXX XX@ @@X@XX@-@,;,#####oOXXoX@@-oo@@#oX#o#@X@#@11@#X#@#@OoX@#*#*;oXo-@@#####-#%;",
"2;-##%####XXoXXXXX @XXXO@XXXo@#;;#oXX X XX   X XXXXX@oX X@#X#O#;;#@####o@#oo@ooX@@X@o@XoX@@##o#;;#@o@#@oo@oO####oXXX*#oo#-#;;-12",
";;@##@#-##XXXX@-#@o@oX @#XXXXX##;#oXX  X  o   XweXXoooXOo@oX@X@;;#o##o@@@@  XX-@#@#@X#X#oXXo@o##;#Xooo@o@#@o#oowe#####o@###;--;,",
"6%#-####;#@XXo@##X@#OXXX#XXXX o###X  XX  X XXXXzzX@o@XXOXX@o#o@2%@@###@##@XXoO###@#XXXX@XXX@@-@##@Xo XXX#@@OoOoFDX;@#XX@--##-#%1",
";o;######@@XXXo-#@@@##oXXX XXXXX@XX    XX  X XXzSOOo##oXXOXX#@o@@X###@## @@oXXo##oXXX@ooo@oXXXXo#XX X XX@@##oOOAAOXXXXXoXXo@#-;#",
"-##o#-####oXoX#-;#oo#ooXX   X XXo XXXXX XX XXX*BB###;;@X  XoXX@##XXX@###@X@oXX#;;##o@#XX#@XXo o@#X X X XXX@@#X#AB*#oo##o###%###;",
"@#oX@####@o@@O#-;#@o@#o@XX X XXXXX   X XXO#oX+YNkU@X#oX#@@XXXXOXX@oX##;#oXo#@@#;;#1####O@#o@XX@XX    X Xo###O#TBVUoXX@#@##@@##;#",
"@####;####XO#-@;;#-#@o##@XXX XXX XX X  XXO@@o&HnVH%X####@#@@XoXXXo@o@@oXXOX#X#@-;#2O,#;#@O#XoOXXXXo@oXoXX@#-o:HmVJ&####@#@X@###;",
"##oo###o#oo@#;@;-o##o*#@@XXX X  XX    XX@@X@#EDccDE*O@o##oOXX@XX oXX@;Xo@XX@###;-o##@#@@@@XX# XoXoXXX XXX@#o#EHccD!#@#@@oXXXX@-o",
"#######X@@####o;;o####@@@oX XX XX  XX X#X@@&EUDccDUQ&Xo#oo@XX@oXXXXX##O#Xoo###o-;###-###X@XX#OXX@XXXo@@ooO@;QYHvcDY~:#o# @XOo@XX",
"#*###@#@@##%#@O;-@o@###o@XX X XXX XXXXXXo@YGDDCccBDHGY#O@@XXXX@XXXXoX@Xoo###@@@;;oo##-#@@#XXXX#XXX XXXo@O*TGDHCvvFDHLY#@@#o@@oXX",
"@-;##o##1;11,;;;-;;,-;##o@XXX X   XXXXwCzNnmncvgxcvmVnlBzaXXoXX XXXXXX#@;#*;;;;##-;;;##%o@ XXX@ X XXXXuzzVNmMMvvxcnMVNAzDsoX#o@ ",
"#--;*#;;22;2%;,#;;%;-;#-XoXXXXX XX XXXujlNNncgcggccvNmNCjqXX XX X#X @X#;;1;1-;##-;-;;##21oXXXXXX@XX XXujlBhnccvvvvbbmmNBz0o@O##@",
"oo#;-,#;;;,#@##;;;#@@##oXo X  ; X@XXoXoXoOYHDDzchDDDGU#oXX X XX  X@OXo######@@@,;;o@##-@X;@ X@oo@XXX.XXX@*UGDDVbvCFGGR,@o@XX@#oX",
"XX##;-,-;#;2;##;;#2##oXX@XX XOX   XoXXXXXXo1EUDccDUQ:@##XX XXX # X oo#@##XO#;;#;;o1##oo#@#@X@#XoOo#X oXXXX@%RUDvcGU^;@Xoo@@o#X##",
"o oX#%@##;####@;;@##@#@oo@  - XXXXX   XXXooo#QHcMCQ#oo@@@# XXXX @O XX@#@oo@o%-#;;@##@oO@o@ooXX@X@@ X X X#XX@#EDMcH~#OXXoX#o#X ##",
"XX##@@-##;##-%;,,,2@###@OXXXX@@XX   X XXo#@#o&HnVG>@#XooXOX XXo@XXXXXX;@@;oX@--;;##o@@@#oX@XX@@XXoXX X  X @XX$HNmG&o@@oXXX X@X#-",
"X@#X####-##;@#22;;o###@@@@o@oXoXXXXXXXXo@#Xo@#YSmT@@###XXo@ooXXo#X##o@#ooXX;o@#1;#@oo@##@ #XoX XXo X@XXXXoXXoXUBNToo@#@XXXoX@XO@",
"XXXX--#;#---##;;;;######@#oo@@@@XXX@@ Xo##@##O2VN#O###X#oX@@@oX@@@1##@o;XOo@@@,%,#X@@#X@XoXXOXX@@@O@@@ X.o#oXo1AB$##O;##OXXooXX@",
"#@X@##;###@##-#,2#@#Oo###oO@O####XO@ XoO;#-;-##DI;-@#;##;#@#@Xo#6XoX@@X #X##@#@#2-XoXXO @#OoXXXX#o@oXXXXX  X+#OFG##o@###@XX#oXX#",
";ooX@##;########2-@@###@@##oX@o#;oo@@XX@#@;;##@HB#####oX-o@X@@@%-o@O#@X @##@;oXXX#@XXoXXXo@ XXo#-o#@Oo XXX XX XAzX1X##oX#@#X XO-",
";#oX@#######@#-;#@######@@##oX@;;#@@##@X@@#%#*@ur#####oXXo@#@#;1,6XXo#XXX#@-#oX@XXXoXX#XO X@oX#-;@oo@oX  X XXXoweo@X@#oX@@oo@##;",
";#@o@##-%##@##@@####@#@@#o$#@o#;;#O##,#######@#oO###@;#@@o@#X@-;,-2X @XX#XXoXOXXXXo#XXXo@oo#@o#;;#@##;@X  XXoXXXo#oo#-#@@#o@@o;;",
",##X#@##@###@@oX#%##$@########@;;###2#o#o#oo#o#####o#@#@@###@-@1:1#oXXX# X@o@XXXoXO@#@X@X@#@#-#;1@#@#@O#XX  X OXO@Xoo#*@@#Ooo-@,",
";---@@#X#@#X#oO######X##X@@#%#o;;X#;-@##o#oX##@*OXXXXXO@oO#%**#,;#-;@oXO#@Xo@XXX#X@oO XXXo@O;2#;;@###@oo#XXXXXXXXX X@@;oX@@@##@;",
"%1#,%@@###OoX#X####;####@o@,;#@;;@###o##@##oX;#X#XXoX Xo@X##;#@%;@16#@X@-XXXX#o@#@o@@ooX@X@###O;;@####XXX#X  oOX@XXXXX#@oo@###o;",
";@@#@#-#-#@oX@oX#@@#@;o@@##@OoX;;#;o@###-#;*XXoo-#@XXXXXo##-#@@-;@@@##@o@XX  X X@;o###Xo##-#oo#;-oo###@OXo@XXOXX@XXXo@XoX###@#o-",
"--;,;,%##;o@@XoX@@;#@##,;;;;-;-#;-;;,;-;##--;#-X#@Xo@Xoo#;,,;;;--;-%;#####XXoXX X#X@#@@##--;;#-#;#;;-;#-@@@oXX@XX XXXXo##-1;;;;#",
";;;;,;;;##o#@XXo@@o#o#@;--;;--;-;;;;;1-#;#;#;##;@oXXXX@##;;;,;;#;;;;;;##;#XXXXX@Xo ###@#-;;*;;;#;;;;;;%#@;O#@X@oXX X @@#-;;;;;;#",
";@@o#-#@##oOX XX@o@;@####*%@#Oo--@@@######;##@##@O oX#@X@##@#@@;-oo@@##o#O X XX@X#@XX#@#o-1;#;X--o@##@#O#@@oXXX@X#  X@#X#;##@##;",
";o#-7##o#-##@XXXOXo####o#@#-##o-;O#####oo##o@@@## XX@X #oo@-%-#;;@o-#@X X#XXXX#-o XXXXX#Xo#921@;;###7#@@Xoo  XOoX XXoXX##oo##;;;",
";o-;o-#@@#X#X#XXo###O##@##@@#,%;;@##oo@#Xo#oX#Xo@XX XoX@@#X#;2%,;o-#oXXooXX  @OX#X@XXX  oo##72;#-#12#o@#oXo XoXX@ XXXXOX#@X-#-#,",
";#;#;#1#oO@XOoX*XXXX;oo###@#@##1,@##@O#oXXX#X@#@XXOX X@X#X###,21;##@#@#oXX XX@###oo@OXXXXoXX@6-%;#2####@@X.XXXXXX  XoXo@@@o#@##;",
",##Xo-#@@#@@XO@OoX o##@-;####@#22#@@#@#o@#@X-@@#X@@@o#oo###@##221-#%#;@XX@@#o-##;#O##@X@XX#o@#,;;1;@#@#@@#oXX@ XXXXXXOXX@@;#@@#2",
";#o#XO#o#@o#XXXieXX###;;##o;#;#;;;XoX-####@#@#;;1###@o########;2;#-@#-#oo#o#*#*iu-;##ooXX X-@X;#*4#@X@##@@ XX @@@XXXXXX@#O#@###%",
"-@-@XoX#@o##oXXBzX@@##o;;@@##*#-;;XoXoo#;#@#%-#;-o##XX#####;-;2;,;-###@#@XoXooXAA-#@@oX#XOX@@o#--;o@o#o#-#X XXo@#XXX XX#ooo####-",
"#o@@@#-oO@###-+BBOo#####@@@;-####o@#####@@####%,;###@@X###-;##o#,o@##;##@###XoOAB;##O#XOXoX##@##*@o###@#@o##XoX##oXoXXXXXX@@oX@#",
"#X@ ##oXoo#@-@#BB;Xo#@#O#@o#@##@#@@#-##@-@#-;@2;2-#-#@@@#####o@@%##X###@@####X#FK#####oooXXX@###;o#X@#;@#oo@@X#,2@XXXX XX oo#oO#",
"XX#X##@-o@###oYZVE*+;#@oo@@#oX#Xo#@##%@###;%#;22,%##@#oo##;;###XXo#@;;#X###;*OYVVYO##OoXXXXX@#o XXX X#o@O#;-oo#2;#@@oXXo#@#@@#oX",
"ooo o#@@-###,&HnVH&o;##O##@#oOoo#;#-####;;-1#,1;,#-##@#######@#o#-@##O#####2,:HVVH$o##@#@@XXX@OXOoXX@XO@o@@o###;1##oo#@@OX@@##XX",
"X#XoO##@;#oo#EDcMJ(;###-#X#X@@o@@-##o#-;;;@,--@:;##-@o@##;##oX#@-###o####;#;;EDncD^*@oX#OXXXXXXX @XO##XX@XX###@;;@#-@XX###@@@XX ",
"X X@o#;##oO:!EHbcJY~:OOoOo@#XXXX#@##@#;####2;;#;;@#2#@#$#@-#oX##-@@;#O#####&EEJMcDUQ&OOo#XX X  oXX XXX@XXX@-##@;;@###@o#o##@oXOX",
" X X XXo;1YHDHFcvFDDIY#OXOXXX@X#@######,%-1;@##;;#@#;######o@#;#OX@#ooX#;*RHDDGbcBDDHU#+o#XX @X  X@X@XoXo###@#o;;o#@@##-Xo@XXoXX",
" XoX#orzBFVmMcbcgccMVSkBBpXXX#oo#.X;o@#,;;22;;;,;;;,,;-#@;oO-;#X#X#oo.eFBFZVmvccgcvMVABBzuXXXX  @ oXXXo##;;;,;;--;;,,;;*X@X@XX  ",
"XoX@#*dzBSVmcncgxcxvnVNBAqoOXXX@XXXO#%2;;,;;1;;%;;;;1,;-##X##o-;-#OO@XikDVNVvccxxcccmVBAzqXXX  X@ X-OX@X;;;;;;;%#;;;;1#%o@oXXX  ",
"X  X###*;#UHDDBccCDDPY#oX# X  @X.XXo##;@,;#;@#;;;@@#-#;%##o@#;;#@@XXXo@X;#UHHGCMbDHJPE11X#@o XX XX @ @oX###@o@@;;@@@@##@XX X XXX",
"X  @o ;#;;#:QYHvcDEE3*###@#OXXXXX Xo@@;##12;22#;;@##;@@,######@##oX#@XXX@o#&!TDvvDUQ&oo##@O@oX oX@XXXXXo#oo#;#@;;@##-@## X  X   ",
"XXo@Xoo#*;+O#QHMnDE-###oo##XXX  XXXo##@#;##-;2#;;@%######;#-;-#;#o oXX OX@@@#(HMbHQ#o#o##;@XXXX Xo#XoX @#@o@#-#;,@%#XXXX#  X XX@",
"X@oXXX@###;@@&HVVH&o-##@ X@oXX@X XX@@#######-1;;1#;#2###;;###;#;XXXXXXX@#OX#,$HnVH;o@###oXXXoXXX# XooX @@-#X@##,,@-@#X XX #  XXX",
"o##@#@#@###,oXUVmYXO###@#XX@@oo##*X@#,;@#;-;;222;2@##,;#@##-*;#XXXoX@@o#oXX###YVVEoX##*@##X@XXXXXX o##@X#;#@@@,;%#@X@oX X XX@Xo#",
"@#####X@@@###o*AB#X#o@#Oo#X@X@o@##o##;####--@;62;%#-###,%#X####o@@oX@Xo#oXXX##1FB#oXo###X@XXXXX@O#XX##o@@@oo@o;;;##-ooXX X XXo@@",
"###@O#@-#@##*#oAA#XXXXo#@X #@OO###;#;#;#;##;;;2%1-#;##@#@#@@##X@#XXX #@O#XXo@o*DSO@o##o#@XXo#XXO@XXX OoXO@o@O#;-,@XX;X oXXX@XoO#",
";o-#@oXo#######BCo@X#oo@#oXX@X@#-@#,%,;#,1-;;#;;##oo#;-##X@@#@#--@#o@@o #@o@oXXzAO@oo@@@oX#X@;@##@X #XXX####;oXX;o#oo@X@XXo @Xo#",
";#####%@@@#o##-ueXX@@###@#@@oX#;;###;###;-;#-%;-1;@#;##o#o###@#;;#XXo#@oXX@oOOowdo@####oX @ XX#;##XXooXX#o;##@o##X####@.@o#@@o#-",
";###;#@@$#@#@###@#@oo#@o#-#%#@#2,##;;--;;-#--###;#-#X#Xo;o#@@#%;;#XX;# XXoOXXXXXoO@@XOXo XO@%@#,;#@oXoXXo@##@o@XoX@o#@XX;@--X##;",
"1#1;;##;#@#@@ooo##*o#O@####1o;@;1#-o--#;-%,#-#-o#;###@###o#o@;@,;#-@## X XXXXXXOo oX@ @XoXXX##@;;@#@X@*@X####@@oXo#@@o@X@#;@o2@1",
",##1#@,@X@#@oX#Xo#o#@X#;####;;#,;@%#;;-2;#-#-#%;####;o#@##@o#-@;;@##;#X.XXX X@@XX   X XXXX#o###;;@##oX##O#;####XooX@@@####@@#,#;",
";%-;%@@-####X@@*#;@##-##@o@-##@;;@#6%@;##;;#@##-####o##-@-#;#-#;;###;@XX XXXX#o@ XX  X XXX####@;;@%-#@@##o@@@###oo@#o@o@@@@-#;@;",
";###@##;;#XO#oXX#;###;XXo#####o-%@@##2;#;;##@#XO####X@#Oo-;@#;o;;oO#@##@XX XX@o X X XXXXX-#@#@o;;@@@#,#@##X#o#XX###O@@XXo,%@#oo#",
"--;;,,-2-1X@@ooO#@oo#@##-;,-;;--#;;11;,2;;#-@##@##X#####;;;;,-;%;;;;,-##oOX@@##o#X X XOX@#-;-;;#-%,;,;--#;@##@#@O#@o#X@@-,;;,,-#",
"-;-;;211*;o@XX@@o#@XXoo*#;,;;;;;%;;;12261;#%;O##oo @@#-#-#;-;;,#;;;;;,##o@XoXX#XX@ XXX@o#;#;;;;##;;,;1%##;#@@#X@XoX#X@#;;;,1;;;#",
"-ooo#-#ooO@o X#XXO@o@oXX###@%X#-;-@@o-2#;1,;;##;OXXX########oo#-;o#####ooO@@oo--XoXX XoXo##@o@@*;@#########@XooXX#XX@XX#####@#@%",
";o@,#o@Xo-#oXo@##ooooX#@@@-#;#O-;;-;-o-@#;%-###o#oXXXX##oo@###@;;##2-@XXX@#@XXX#oX@o@X@XXX####o;-###-o@###@o#@#O#* X Xo@#####;@;",
";o#-#@@@#oo#X#@o#@#@##@##@o#;-@;;#21#@;,#;@-####@@XXoXXX#@oX,-@;;o-#@XXX#@O@ XXo#X@@@@oXXXo###@;;@#;@X####o@XXoXX@ XXXXX@##@##@;",
"1#-@####oXXX@#@@#-#########@o##,;@;%-;###@o#####@#Xo#o#@@#XX##@;,,-X#@@##XXXXXXXXXO@#@oO XXXo##1;#########oOoo#OX@oo@oXoo#@o#,#1",
"1;##-##Xo#Xo##@X@@####@#@##@#o#1;,@##;#o@#;#-2#+#@o#@#oXXo@##o;;;##@#;@X@#Xo#@oXXXoo#@XXXXX#@o#;;;##@;#@##@###o+##X#-#XXo#-####,",
";%###oo#@#.o#@@@#@@;##@##@@ooo#;22,*-#oX##-##;#ri*####o#oo###@#2;#X##@o### XXX#@@#@##o Xo  X@#-;,####@#;##-##@#ee##@#*Xo@@@@@##%",
";##;##o#@#@@#####o##@Oo#@@@@o@--#o@####@#@-@#;-DD#@*#O#;-o#;@##,2###@@oO-@ XXX##-oX@@XXXX X@@##;%#@#X#####@###@DA@#o@oX@oo#@@##;",
";@;##@#@oXX####-#@@#####@oX@o@@-;X######o#$;##=FB+##@#--##;##-##%X###o@@#oXX X###@XXO@XXX oXO-O#-X#@o@######--@BBO####XoXo@@O###",
"#@####XoOo#####,;#o%;@#@ooXoXX##@X#@@*#o#@###X#VA,;#;;;-;######--o@Xo#o#@XXXXX#;;#Xo@oX oXXX#-#####o@#o###-##-*SF*;;#-##oXXX#@#-",
"@##o@#o#O@@####,;-##-#-###oOXo#Xoo#X@###O#=#o;WSVYo;,;%;;;#;#XoXX@@o#@o#XOXoX@#;;*##@@@X@@O@#;;oX@#o@#####;##;WZVU@%,###X#X X ;#",
"###@@oO#@X#--#@;;#,#;#;#oO@oXo@@@@OX#@##o###+>UVVU3#1#;-#-##@#@Xo@@@@X@oXoX#X-#;;#;o##@@####@#@oX@@X###-;#;;-:PVVJ>###-;#@XXXoX#",
"####@#X@oXoo##@;;@-,@;##@XXoXOo#o#@oO@##@@@@#^HmnF^###,###o####Xo@XX##XX#XXo*#o;;@#*;#@#@--#X@XOo#@o#-@-;#;%*(HMMHE=@Xo#--XoX@oX",
"@o##@X@#X@####o;;##;;#%#X# X#@XX@oo@#@###O#:(YJMcJYE&##O#####;XX@Xo##@oXo@o-##o;;######oo@@o#XX @Xo@o####-;>!YGvcHYQ2@@##XXoXXXo",
"ooo#@Oo@o##@o@@;;%o###-#o@X#@ @Xo@o@@#@o#-TIHDFvbSDHHY;o###o##-Xo@#-oXXX@####@o-#@oo@##o#o@-@XXXX@OoXXX-#6WJHDDvbDDGHU#O@#@oo@@ ",
"@X@##o@#;1;;;;;-;;;,1,#,#@X#@XXX@Xo#XXuDAVZVMcbvvbMMVZVBBsXo;@; XX@#@@OX#-;;;;;##;;;;;##ooo#@X@ X XOoXpCFFZVmMMcxMMmVVNBBsXO#@@X",
"@@Xo#X##;;;;;;;--;;,,1-,##X@XXX@#@o@OXpkAFVVMcbcvcbmmmBFzqo#@#o#OoX#####;;;1;;;####;;-#-@oXX XXXXXX o*ijAFSVvccfxcbMVVNFz0o@O@O@",
"#@@@@o@o;-##@##;;@@@#####XoX@X@.@ -oX@@o;,THDIJMvHHPUY1###X####X@#@@#@#oO##@o@@;-o#o@##XXXX o XX@XXXO##X#;EGDDHvbAHHHY#@#OXX##@X",
"@oO;@#@-#@#;;##;;@--#@Xo#XXX#XXXXXo@o#@O@##>WWJbvHYE5o##o###-@#@#@oX@@@#@oX####;;@##,oXXXo @@#XXXXXooXOo#+#>QRHvcDYQ:##@#o@o####",
"##Xo##@@@@#@;--:;@;-@ooX#@X.X XXX#XoXXOoo##@*(IMcH!*##o#X#####@###@XX@o@#oX@##o;;@##oXX X XXX XXXoXXXOoo##OO#(HMMH^##o#@#;o#@oo#",
"##;@#,%#$o#@@2#,;%t###;#@  XX#oXXOX@@XX###-,o:PVVP8o######O#####;#ooOo@#@XXX@-@---#XX@@XX X X#oXXOXoXX@@+###o$HnmG&o@oo-@###@#*#",
"#####;######o#1;;2####-oXXoX@X@XXXX#oXo###-##-EFZ^**#;;#@####@##;###@@XooOXoo@#####oX#oO@ XXXXo#X@ @@@;o+##oo@UBVTOXXXo@###-####",
"########o#@o#@,-;;@#####X@@@#@oooX@##oX@@o##-o1SB##;#;#;######-##;##@oXOX@XXXo####XX@XoX  @XXX @#-@@@ #@Xo#@XX*Bk#ooo#o#oo;##o@o",
"#########@@###;2;#@#@@o#@oX##Oo@#o##X@#@#oo@-o#DF+;#;########@%2;@-#oXXX#@XXX@o;;X@XXXX XXXXXXX##o##XXoOXoXo#OOAFoOXO@@#@@####@#",
";#@@###X#########@oO#-#@#@#O@XO#%X####@O#@@##@XzN##O*##@##$@##;;-##@#oXX##@XX@Xo@@#XXXXXX XXXX@-;###;-#@#@@oXooDB@oX@#@o#o##o@#;",
"1;#-$##@$###-##1-XXo@@@X@o##oo#;;%@@#@@ooo#@OXowe#@Xo##@Xo###-2,,#oO@@o#@ooX@XXO@XX#XX  XXX@Xo2;;,##%##@o@@XXXXiaX@Xo##oXX-@####",
",2##@#o##@X###oX@XX@ooXX####@#;,;#@@#-##o#@OXXXXo##Xo##@#@##;@;,;##oO#o#;@Oo X XX XXXX X#@##X@-;;#@###@o@@@XX X#@XXXX@#o@Xo##;#,",
",;2#-#;#@####@oXo@oO@o#oo#;###-1;@;@-##;o@@@# XX@#oo#o#@@@#@o##1,#-@o###oX#@XXXXXXXOoXo@X@#o@#@1;-1@;;##XO@oo @o@XXXXX@X@oOX@##;",
"1;-7;;;%-@#--XXOX @oo @@X#-#-;#;;##;%#####oOXX X-Xo@@XoX@@@##%#,;@##@@#;#@XooX XX XXo#o@@X@o#--,;-1--##@#OXXX XXOX XXX XX Xo2;o;",
";;2ty;1-;##@o@X@XoX@Xo@@oo@,#-@;;#--;##-#@@XXX@-#OX@XoX@@@@$-##;;@#-#@##;#@@X#XXXX @@##@#oo,#%-;;-%6,;##oO#X @@X;OX@ @XXXXo-1#@;",
";-%-;72;@#oXXX  X#OoX#XXX##@Xoo;;####,-;@##XXooX##Xo#XXX###@@@@;;#@@o##;##@@XXXXXo oX@XX@%#@--;;;#;2%2,#X--#@X .XoXXXXX@o#7;##o#",
";;;;,;1,16#@@ X X XXXX;#;#-;-;-%;;;,;1,6;##-XX@X#oX@#XOX-;,;;;;###-%;--;##OXXXXXX X oXo#-;;;1;;;;;;1;22,#;##@XO oXX #@Oo###;;-;;"
};
