/* XPM */
static char *result[] = {
/* columns rows colors chars-per-pixel */
"64 64 20 1 ",
"  c #202020",
". c #2C2C2C",
"X c #343434",
"o c gray22",
"O c #400040",
"+ c #480048",
"@ c #580058",
"# c #600064",
"$ c #6C0070",
"% c gray25",
"& c #484848",
"* c gray33",
"= c gray36",
"- c #646464",
"; c #840084",
": c #9C009C",
"> c #A800A8",
", c #B400B4",
"< c #C800CC",
"1 c #E000E4",
/* pixels */
"oooooooooooooooooooooooooooooooooooooooooooooooooooooooooooooooo",
"*o*&&&*&&&&*&&&&&&*****&&&&&&*****&&&oo&&*&&&&*o*&&&*&&&&*&&&&&&",
"<<<<<<<<<>&*1<<<<<<<<<<<<<>&o1111111<<<<<<<,,>o11<<<<<<>&*1<<<<<",
";>>>;>$>$#.*<;;>$>$:>$:$>:@.&<>;#>$;;;>;>;>@$#&<>>;>$>$#.*<;;>$>",
";>;>$:>$@O.*<,>;$>>$>;;$:;@.&<$#;>>$;>;#>;>;$+&<;>$:>$@O.*<,>;$>",
";>;>$>$:@O.&,;>$$>>$:$;$:;@.o,:#;>;$;>;#>;>;$O&,;>$>$:@O.&,;>$$>",
";;>;@$@$$O.*:$$+$$$+$$;+;$O.o,$@$$;+@;++;+$;;O&,>;@$@$$O.*:$$+$$",
"........  .*&...    .   ....&o........   .....&&......  .*&...  ",
"*ooo&&&ooooo&&&&&oo*&&o&&&&&*&***=-=*&&o%o*&&**ooo&&&ooooo&&&&&o",
"<,,,,,,,,,,Oo*1<<<<<<,,,,,,,,,,,,,,,,,O&o1<<<<<<,,,,,,,,,,o*1<<<",
";>;;;;>;;>>O.&<,>;>;>>$;,;;>#>;>;>;>>$O&*<;>;>;>;;;;>;;>>O.&<,>;",
">;;;;;;>#>#O.&<$>;,;>$>;,;;>#,@#>$$>>$Oo&<;>>:>;;;;;;>#>#O.&<$>;",
"$>#$;;#>;>>O.*<,>;;#;;$>;;;>#,;#;>;>>$Oo&<>>>;$>#$;;#>;>>O.*<,>;",
"$,#+;$$:@:$O.*,>;@:$;$;$:$#;$;@$$;$:;$O%*>;$$:$,#+;$$:@:$O.*,>;@",
"......  .. .oo&o.....XoX..    ..   ....&*...........  .. .oo&o..",
"**&o&**o&ooo&*&&%oo%o&&*o*%oo%%&*%o%&&**o%o%&&**&o&**o&ooo&*&&%o",
"*11<<<<<<,,,,,,,,,,$O&*1<<<<<<,,,,,,,,,,,,,,>O*11<<<<<<,,,,,,,,,",
"o1,>:>$;>;:>;>$>#;$,O&=<:>>#;:;:#,#>1;>>#:;>$Oo1,>:>$;>;:>;>$>#;",
"&,,>+>$;;$;;;;>#;#$@O*=<>$;#;$>;#,;;,;;>#;;>$O&,<>+>$;;$;;;;>#;#",
"*,$>+;>#$>#;#>;:#;;,O&*<$>:;;$>:@,+;>;>;>#+$$O*,<>+;>#@>#;#>;##;",
"*,$>;;;,;>,;#>;:$;;$O&*<;>;,>;>;,$;;>@>;>#+$$O*,$>:;>#:;#:;>;#:;",
"&>:##########++++++..o*###########@@@@@@@@.@@.&>:##########+++++",
"&&o............oo....&&......    .oo   .......&&o............oo.",
",,,,,,,,&o*<<<<<,,,,,,,,,,,,,&*<1<<<<<<,,,,,,,,,,,,,,,&o*<<<<<,,",
">,>:<,<>o&o<#$>>>;>$>#>#>>>;>o&<>;$>#>;;>>;>>$>$>:<,<>o&o<#$>>>;",
">;;:>;;$.&*<>;>;:$;;$;>#>$>#>o*<>@$>#>;;;:$::;>;;:>;;$.&*<>;>;:$",
">;;:>:;$o&*<#;>;:;;$;#>#;:;>;o*<;>$>>>$>;;;:;$>;$:>:;$o&*<#;>;:;",
">;;;>;>$o&&<>@:>;;;>$+##>:>;>o&<>;>$;;$;>:$>;>>;$;>;>$o&&<>@:>;;",
"..+++++..&&#######@@@@@@@@@@..&>###########@@@..+++++..&&#######",
".........&*.   .oo.    ......o&&...o&o.  ..............&*.   .oo",
"o1<<<<<,,,,,,,,,,,,,,,,o*o1<<<<<<,,,,,,,,,,,,>o1<<<<<,,,,,,,,,,,",
"*<>;>#>;>;>;>>;>>##>>$>o&*<>##>>$>>;:;$;;;:$>O*<>;>#>;>;>;>>;>>#",
"&<;>#;#>>;;>#;;@>+@;#;$.o&<>#;>@>;:>>$$$>>$;>O&<;>#;#>>;;>#;;@>+",
"o<>>;#;;>;>;>>@;@:;>>$;.o&<#>#>>$:;@#>;:;;$>>Oo<>>;#;;>;>;>>@;@:",
"o<>>#;;:>;;>:;;@>+$:;$> o*<>##>;>;:$#>$$>:$>>Oo<>>#;;:>;;>:;;@>+",
"*>######+++++++++++++++.&*#######@@@++++++++..*>######++++++++++",
"o&.......oo.   ..   .  .&o.....  .oX ...  ....o&.......oo.   .. ",
"<<<<,,,,,,,,,&*&1<<<<<<,,,,,,,,,,,&o1<<<<,,,,,<<<<,,,,,,,,,&*&1<",
";>@>#:>;;>#;>.&&<>>#>>;#>#:>##>>$#o&<>#>@$>$#>;>@>#:>;;>#;>.&&<>",
">;@>;:;>@>;:;.&%<;>#;>@+>>>#>;@;#$.&<#>$>;$;#$>;;>#:;>@>;:;.&%<;",
";:;#;;>;@;$>#.&%<+>;>>;#>#;#>>;$:#.&<>#>;$>$#$;:@#;>>;@;$>#.&%<+",
";:@##;;;@>#;;.&*>+>#>;##>$>#;#;;#;.o<##>@$>$#>;:@##;;;@>#;;.&*>+",
"..............&*oX...........   .  o&....    ...............&*oX",
"o*oooo&&&**&&&****&&*&&&&o&&%o%o%&o%&&o&&&%o&&o*oooo&&&**&&&****",
",,,,,,,,,,*o*1<<<<<<,,,,,,,,,,,,,,,,,<&o1<<<<<<,,,,,,,,,,o*1<<<<",
">;;;;>;;>>o.&<,>;>;>>$;,;;>#>;>;>;>>$>&*<;>;>;>;;;;>;;>>o.&<,>;>",
";;;;;;>#>#*.&<$>;,;>$>;,;;>#,@#>$$>>$>o&<;>>:>;;;;;;>#>#*.&<$>;#",
">#$;;#>;>>*.*<,>;;#;;$>;;;>#,;#;>;>>$>o&<>>>;$>#$;;#>;>>*.*<,>;;",
",#+;$$:@:$&.*,>;@:$;$;$:$#;$;@$$;$:;$;%*>;$$:$,#+;$$:@:$&.*,>;@:",
".....  .. .oo&o.....XoX..    ..   ....&*...........  .. .oo&o...",
"*&o&**o&ooo&*&&%oo%o&&*o*%oo%%&*%o%&&**o%o%&&**&o&**o&ooo&*&&%oo",
"o1<<<<<,,,,,,,,,,,,,,,,o*o1<<<<<<,,,,,,,,,,,,>o1<<<<<,,,,,,,,,,,",
"*<>;>#>;>;>;>>;>>##>>$>o&*<>##>>$>>;:;$;;;:$>&*<>;>#>;>;>;>>;>>#",
"&<;>#;#>>;;>#;;@>+@;#;$.o&<>#;>@>;:>>$$$>>$;>&&<;>#;#>>;;>#;;@>+",
"o<>>;#;;>;>;>>@;@:;>>$;.o&<#>#>>$:;@#>;:;;$>>&o<>>;#;;>;>;>>@;@:",
"o<>>#;;:>;;>:;;@>+$:;$> o*<>##>;>;:$#>$$>:$>>&o<>>#;;:>;;>:;;@>+",
"*>######+++++++++++++++.&*#######@@@++++++++..*>######++++++++++",
"o&.......oo.   ..   .  .&o.....  .oX ...  ....o&.......oo.   .. ",
"<<<<,,,,,,,,,&*&1<<<<<<,,,,,,,,,,,&o1<<<<,,,,,<<<<,,,,,,,,,&*&1<",
";>@>#:>;;>#;>.&&<>>#>>;#>#:>##>>$#o&<>#>@$>$#>;>@>#:>;;>#;>.&&<>",
">;@>;:;>@>;:;.&%<;>#;>@+>>>#>;@;#$.&<#>$>;$;#$>;;>#:;>@>;:;.&%<;",
";:;#;;>;@;$>#.&%<+>;>>;#>#;#>>;$:#.&<>#>;$>$#$;:@#;>>;@;$>#.&%<+",
"#>;;:::#;>##:.&&<>>;;;+#;+;#>#>>@;.o<#>$@$>$#>#>;#:::#;>##:.&&<>",
"+##+##+++#++#.&&#####+++#+#+#+##+#.o#+##++##+#+##+###+##++#.&&##"
};
